<svg width="164" height="44" viewBox="0 0 164 44" fill="none" xmlns="http://www.w3.org/2000/svg">
<path d="M54.008 33.46C53.696 33.052 53.432 32.608 53.216 32.128C53 31.624 52.772 31.024 52.532 30.328C52.484 30.208 52.34 29.848 52.1 29.248C51.884 28.648 51.632 28.132 51.344 27.7C49.832 27.916 48.596 28.024 47.636 28.024C47.108 28.024 46.52 28.012 45.872 27.988C45.248 27.94 44.78 27.916 44.468 27.916C43.268 27.82 42.308 27.772 41.588 27.772C41.3 28.156 41.048 28.564 40.832 28.996C40.64 29.428 40.388 30.076 40.076 30.94C39.644 32.188 39.272 33.076 38.96 33.604C38.744 33.964 38.324 34.144 37.7 34.144C37.172 34.144 36.68 34.036 36.224 33.82C35.792 33.58 35.576 33.256 35.576 32.848C35.768 31.936 36.068 30.976 36.476 29.968C36.908 28.936 37.52 27.568 38.312 25.864L39.752 22.336C40.544 20.32 41.264 18.592 41.912 17.152C42.584 15.712 43.46 14.008 44.54 12.04C44.684 11.752 44.924 11.512 45.26 11.32C45.596 11.104 45.968 10.996 46.376 10.996C46.832 10.996 47.156 11.032 47.348 11.104C47.564 11.152 47.732 11.248 47.852 11.392C47.972 11.512 48.152 11.776 48.392 12.184C49.208 13.456 49.904 14.764 50.48 16.108C51.08 17.452 51.836 19.312 52.748 21.688L53.504 23.596C54.176 25.324 54.752 26.776 55.232 27.952C55.736 29.104 56.288 30.16 56.888 31.12C57.272 31.744 57.464 32.176 57.464 32.416C57.464 32.992 57.284 33.436 56.924 33.748C56.588 34.036 56.144 34.18 55.592 34.18C54.896 34.18 54.368 33.94 54.008 33.46ZM50.3 24.748C49.916 23.932 49.364 22.516 48.644 20.5C47.9 18.34 47.156 16.624 46.412 15.352C45.956 16.504 45.284 17.992 44.396 19.816C43.796 20.944 43.112 22.576 42.344 24.712C43.88 24.904 45.536 25 47.312 25C48.584 25 49.58 24.916 50.3 24.748ZM72.7153 21.976C72.7153 23.032 72.1753 23.56 71.0953 23.56C70.7353 23.56 70.4353 23.476 70.1953 23.308C69.9553 23.14 69.6913 22.888 69.4033 22.552C68.6833 21.76 68.0593 21.364 67.5313 21.364C66.8353 21.364 66.1513 21.568 65.4793 21.976C64.8313 22.384 64.3033 22.96 63.8953 23.704C63.4873 24.448 63.2833 25.276 63.2833 26.188C63.2833 27.196 63.4753 28.036 63.8593 28.708C64.2673 29.38 64.8913 29.956 65.7313 30.436C66.0433 30.604 66.4033 30.736 66.8113 30.832C67.2433 30.928 67.6153 30.976 67.9273 30.976C68.6233 30.976 69.4993 30.7 70.5553 30.148C70.9393 29.956 71.2633 29.812 71.5273 29.716C71.7913 29.62 72.0673 29.572 72.3553 29.572C72.6193 29.572 72.9193 29.692 73.2553 29.932C73.5913 30.172 73.7593 30.472 73.7593 30.832C73.7593 31.552 73.4233 32.164 72.7513 32.668C72.0793 33.148 71.2513 33.52 70.2673 33.784C69.3073 34.024 68.3833 34.144 67.4953 34.144C66.0793 34.144 64.7593 33.82 63.5353 33.172C62.3353 32.524 61.3753 31.636 60.6553 30.508C59.9353 29.356 59.5753 28.06 59.5753 26.62C59.5753 25.084 59.9233 23.68 60.6193 22.408C61.3153 21.136 62.2513 20.14 63.4273 19.42C64.6033 18.7 65.8873 18.34 67.2793 18.34C68.0713 18.34 68.8873 18.484 69.7273 18.772C70.5673 19.06 71.2753 19.48 71.8513 20.032C72.4273 20.584 72.7153 21.232 72.7153 21.976ZM88.0063 23.092C87.6463 23.092 87.3343 23.008 87.0703 22.84C86.8303 22.648 86.5783 22.396 86.3143 22.084C86.0503 21.772 85.7623 21.568 85.4503 21.472C85.1623 21.376 84.8263 21.328 84.4423 21.328C83.7463 21.328 83.0623 21.544 82.3903 21.976C81.7423 22.384 81.2023 22.96 80.7703 23.704C80.3623 24.448 80.1583 25.276 80.1583 26.188C80.1583 27.196 80.3503 28.036 80.7343 28.708C81.1423 29.38 81.7783 29.968 82.6423 30.472C82.9543 30.64 83.3143 30.772 83.7223 30.868C84.1543 30.964 84.5263 31.012 84.8383 31.012C85.5823 31.012 86.5423 30.688 87.7183 30.04C87.8143 29.992 87.9943 29.908 88.2583 29.788C88.5463 29.644 88.7623 29.572 88.9063 29.572C89.1703 29.572 89.4703 29.704 89.8063 29.968C90.1423 30.208 90.3103 30.508 90.3103 30.868C90.3103 31.588 89.9983 32.2 89.3743 32.704C88.7743 33.208 88.0183 33.58 87.1063 33.82C86.1943 34.06 85.2943 34.18 84.4063 34.18C82.9903 34.18 81.6703 33.856 80.4463 33.208C79.2223 32.56 78.2503 31.66 77.5303 30.508C76.8103 29.356 76.4503 28.06 76.4503 26.62C76.4503 25.06 76.7983 23.656 77.4943 22.408C78.1903 21.136 79.1263 20.14 80.3023 19.42C81.5023 18.676 82.7983 18.304 84.1903 18.304C85.5343 18.304 86.7703 18.568 87.8983 19.096C89.0503 19.624 89.6263 20.428 89.6263 21.508C89.6263 22.564 89.0863 23.092 88.0063 23.092ZM107.449 22.444C107.641 22.78 107.797 23.272 107.917 23.92C108.037 24.544 108.097 25.108 108.097 25.612C108.097 26.548 107.893 27.88 107.485 29.608C105.829 32.632 103.381 34.144 100.141 34.144C98.9412 34.144 97.7172 33.748 96.4692 32.956C95.2212 32.164 94.3572 31.252 93.8772 30.22C93.2292 28.156 92.9052 26.848 92.9052 26.296C92.9052 25.336 93.1092 24.316 93.5172 23.236C93.9492 22.156 94.4892 21.22 95.1372 20.428C95.5452 19.876 96.2772 19.408 97.3332 19.024C98.3892 18.616 99.3492 18.412 100.213 18.412C101.893 18.412 103.321 18.736 104.497 19.384C105.673 20.008 106.657 21.028 107.449 22.444ZM104.317 28.24C104.437 27.928 104.497 27.124 104.497 25.828C104.497 25.132 104.365 24.448 104.101 23.776C103.861 23.104 103.501 22.528 103.021 22.048C102.973 22 102.841 21.928 102.625 21.832C102.409 21.712 102.109 21.604 101.725 21.508C101.365 21.388 100.945 21.328 100.465 21.328C99.1212 21.328 98.1372 21.868 97.5132 22.948C96.8892 24.028 96.5772 25.252 96.5772 26.62C96.5772 26.86 96.6372 27.316 96.7572 27.988C96.9012 28.66 97.0212 29.08 97.1172 29.248C97.1892 29.416 97.3692 29.656 97.6572 29.968C97.9692 30.256 98.3412 30.52 98.7732 30.76C99.2292 30.976 99.6972 31.084 100.177 31.084C101.257 31.084 102.121 30.832 102.769 30.328C103.417 29.8 103.933 29.104 104.317 28.24ZM113.163 18.376C114.747 18.376 115.539 19.42 115.539 21.508C115.539 21.772 115.515 22.36 115.467 23.272C115.419 24.328 115.395 25.156 115.395 25.756C115.395 27.436 115.623 28.792 116.079 29.824C116.247 30.16 116.547 30.424 116.979 30.616C117.435 30.808 117.819 30.904 118.131 30.904C118.611 30.904 119.007 30.844 119.319 30.724C119.631 30.604 119.919 30.424 120.183 30.184C120.471 29.944 120.747 29.68 121.011 29.392C121.467 28.888 121.755 28.312 121.875 27.664C122.019 26.992 122.103 26.104 122.127 25C122.127 24.304 122.163 23.632 122.235 22.984C122.379 21.928 122.451 20.944 122.451 20.032C122.451 19.528 122.583 19.108 122.847 18.772C123.135 18.412 123.543 18.232 124.071 18.232C124.335 18.232 124.647 18.328 125.007 18.52C125.391 18.688 125.643 18.88 125.763 19.096C125.931 19.384 126.015 19.78 126.015 20.284C126.015 20.596 125.979 20.884 125.907 21.148C125.787 21.508 125.727 21.964 125.727 22.516C125.727 22.804 125.751 23.284 125.799 23.956C125.871 24.46 125.907 24.976 125.907 25.504C125.907 27.112 126.027 28.3 126.267 29.068C126.531 29.884 126.891 30.604 127.347 31.228C127.827 31.732 128.151 32.104 128.319 32.344C128.487 32.56 128.571 32.752 128.571 32.92C128.571 33.208 128.427 33.484 128.139 33.748C127.851 34.012 127.551 34.144 127.239 34.144C126.351 34.144 125.571 33.844 124.899 33.244C124.251 32.62 123.771 31.828 123.459 30.868C123.195 31.18 122.847 31.564 122.415 32.02C121.983 32.476 121.575 32.848 121.191 33.136C120.255 33.808 119.055 34.144 117.591 34.144C116.991 34.144 116.331 33.964 115.611 33.604C114.915 33.244 114.279 32.776 113.703 32.2C113.127 31.6 112.731 30.964 112.515 30.292C112.491 30.244 112.419 30.052 112.299 29.716C112.203 29.38 112.155 28.876 112.155 28.204L112.119 22.444C112.119 22.108 112.035 21.58 111.867 20.86C111.723 20.38 111.651 20.02 111.651 19.78C111.651 19.372 111.783 19.036 112.047 18.772C112.335 18.508 112.707 18.376 113.163 18.376ZM147.683 31.228C147.803 31.276 147.995 31.336 148.259 31.408C148.523 31.48 148.715 31.552 148.835 31.624C148.955 31.696 149.015 31.804 149.015 31.948C149.039 32.524 148.823 33.004 148.367 33.388C147.935 33.748 147.419 33.928 146.819 33.928C145.883 33.928 145.151 33.676 144.623 33.172C144.095 32.668 143.711 31.9 143.471 30.868C143.375 30.46 143.327 29.896 143.327 29.176C143.327 28.768 143.351 28.108 143.399 27.196C143.447 26.236 143.471 25.468 143.471 24.892C143.471 23.86 143.363 23.08 143.147 22.552C142.931 22 142.415 21.724 141.599 21.724C140.759 21.724 140.003 22.06 139.331 22.732C138.683 23.404 138.131 24.412 137.675 25.756C137.051 27.628 136.703 30.112 136.631 33.208C136.631 33.376 136.451 33.58 136.091 33.82C135.755 34.036 135.347 34.144 134.867 34.144C133.979 34.144 133.427 33.676 133.211 32.74L133.175 32.128C133.175 31.912 133.199 31.66 133.247 31.372C133.535 29.692 133.679 28.228 133.679 26.98C133.679 26.428 133.667 25.996 133.643 25.684L133.607 23.992C133.607 23.416 133.463 22.864 133.175 22.336C132.887 21.784 132.551 21.508 132.167 21.508C132.047 21.508 131.879 21.556 131.663 21.652C131.447 21.724 131.267 21.76 131.123 21.76C130.883 21.76 130.619 21.64 130.331 21.4C130.067 21.16 129.935 20.908 129.935 20.644C129.935 20.14 130.103 19.732 130.439 19.42C130.799 19.132 131.147 18.904 131.483 18.736C131.843 18.568 132.251 18.484 132.707 18.484C133.091 18.484 133.403 18.52 133.643 18.592C133.883 18.664 134.207 18.82 134.615 19.06C134.855 19.18 135.131 19.516 135.443 20.068C135.755 20.62 135.995 21.4 136.163 22.408C136.643 21.52 137.447 20.584 138.575 19.6C139.415 18.832 140.627 18.448 142.211 18.448C143.651 18.448 144.791 18.976 145.631 20.032C146.471 21.064 146.891 22.492 146.891 24.316C146.891 24.676 146.867 25.264 146.819 26.08C146.747 26.728 146.711 27.412 146.711 28.132C146.711 29.812 147.035 30.844 147.683 31.228ZM151.693 21.544C151.357 21.496 151.081 21.352 150.865 21.112C150.673 20.872 150.577 20.584 150.577 20.248C150.577 20.08 150.613 19.9 150.685 19.708C150.781 19.516 150.913 19.348 151.081 19.204C151.393 18.892 152.233 18.736 153.601 18.736C153.793 17.8 153.889 16.852 153.889 15.892C153.889 15.532 153.877 15.22 153.853 14.956C153.829 14.692 153.817 14.488 153.817 14.344C153.817 13.816 154.009 13.42 154.393 13.156C154.801 12.892 155.257 12.76 155.761 12.76C156.385 12.76 156.805 12.916 157.021 13.228C157.261 13.54 157.381 14.116 157.381 14.956C157.381 16.204 157.273 17.428 157.057 18.628C157.441 18.628 157.969 18.604 158.641 18.556C159.553 18.508 160.213 18.484 160.621 18.484C161.029 18.484 161.377 18.592 161.665 18.808C161.977 19 162.133 19.276 162.133 19.636C162.133 20.572 161.713 21.124 160.873 21.292C159.985 21.508 158.605 21.64 156.733 21.688C156.661 22.624 156.625 23.644 156.625 24.748C156.625 26.476 156.733 27.892 156.949 28.996C157.093 29.764 157.333 30.328 157.669 30.688C158.029 31.024 158.557 31.192 159.253 31.192C159.661 31.192 160.081 31.084 160.513 30.868C160.801 30.7 161.065 30.616 161.305 30.616C161.641 30.616 161.881 30.724 162.025 30.94C162.193 31.156 162.277 31.444 162.277 31.804C162.277 32.476 161.917 33.04 161.197 33.496C160.477 33.928 159.553 34.144 158.425 34.144C157.729 34.144 157.021 33.976 156.301 33.64C155.605 33.304 155.017 32.884 154.537 32.38C154.465 32.308 154.333 32.032 154.141 31.552C153.949 31.072 153.781 30.556 153.637 30.004C153.397 28.876 153.277 27.292 153.277 25.252C153.277 24.364 153.325 23.176 153.421 21.688L151.693 21.544Z" fill="white"/>
<ellipse cx="15.5" cy="15.3333" rx="5.16667" ry="5.33333" stroke="white" stroke-width="2" stroke-linecap="round"/>
<path d="M7.26636 29.0271C8.10357 26.2405 10.8474 24.6667 13.757 24.6667H17.2429C20.1526 24.6667 22.8964 26.2405 23.7336 29.0271C24.097 30.2367 24.4007 31.6036 24.5039 33.0008C24.5446 33.5516 24.0939 34 23.5416 34H7.45831C6.90603 34 6.45535 33.5516 6.49604 33.0008C6.59925 31.6036 6.90296 30.2367 7.26636 29.0271Z" stroke="white" stroke-width="2" stroke-linecap="round"/>
</svg>
