<svg width="152" height="47" viewBox="0 0 152 47" fill="none" xmlns="http://www.w3.org/2000/svg">
<path d="M56.468 22.0629C56.444 21.6789 56.432 21.1029 56.432 20.3349V18.9669C56.432 18.0549 56.408 17.3709 56.36 16.9149C56.312 16.5309 56.288 15.5349 56.288 13.9269C56.288 13.3509 56.456 12.9069 56.792 12.5949C57.152 12.2589 57.632 12.0909 58.232 12.0909C59 12.0909 59.516 12.2589 59.78 12.5949C60.044 12.9309 60.176 13.4829 60.176 14.2509V15.6189L60.14 19.5789C60.116 20.3469 60.104 21.4989 60.104 23.0349L60.14 25.9869C60.164 26.4429 60.176 27.0789 60.176 27.8949C60.176 28.5429 60.2 29.4669 60.248 30.6669C60.296 31.7709 60.32 32.5989 60.32 33.1509C60.32 33.6069 60.188 34.0269 59.924 34.4109C59.684 34.7949 59.348 34.9869 58.916 34.9869C57.236 34.9869 56.396 34.4229 56.396 33.2949C56.396 32.6709 56.42 31.9749 56.468 31.2069C56.516 30.6549 56.54 29.8149 56.54 28.6869C56.54 27.8949 56.516 26.7549 56.468 25.2669C55.34 25.3629 53.396 25.4109 50.636 25.4109C48.908 25.4109 47.564 25.4109 46.604 25.4109C45.644 25.3869 44.948 25.3269 44.516 25.2309L44.48 29.3709C44.48 29.6349 44.54 30.3429 44.66 31.4949C44.78 32.2629 44.84 32.9349 44.84 33.5109C44.84 33.8709 44.624 34.2189 44.192 34.5549C43.784 34.8669 43.4 35.0229 43.04 35.0229C42.176 35.0229 41.588 34.8189 41.276 34.4109C40.964 33.9789 40.808 33.3309 40.808 32.4669L40.772 29.6229C40.748 29.2869 40.736 28.8189 40.736 28.2189C40.736 27.3309 40.712 26.1189 40.664 24.5829C40.616 23.1909 40.592 22.1829 40.592 21.5589C40.592 20.6229 40.616 19.3149 40.664 17.6349C40.712 16.0509 40.736 14.8749 40.736 14.1069C40.736 13.3389 40.928 12.8229 41.312 12.5589C41.696 12.2949 42.128 12.1629 42.608 12.1629C43.952 12.1629 44.624 12.6069 44.624 13.4949C44.624 15.0789 44.588 16.5909 44.516 18.0309C44.468 19.8549 44.444 21.1869 44.444 22.0269C45.14 22.1949 45.872 22.3029 46.64 22.3509C47.408 22.3989 48.488 22.4229 49.88 22.4229C52.712 22.4229 54.908 22.3029 56.468 22.0629ZM66.6698 11.8389C67.5098 11.9109 68.2418 12.1389 68.8658 12.5229C69.4898 12.8829 69.8018 13.4349 69.8018 14.1789C69.8018 14.7309 69.5378 15.1749 69.0098 15.5109C68.5058 15.8229 67.8938 15.9789 67.1738 15.9789C66.4778 15.9789 65.9978 15.7989 65.7338 15.4389C65.4698 15.0789 65.3378 14.7069 65.3378 14.3229C65.3378 13.6029 65.4098 13.0029 65.5538 12.5229C65.7218 12.0429 66.0938 11.8149 66.6698 11.8389ZM69.5498 27.7869V28.8309C69.5498 29.7669 69.5738 30.6549 69.6218 31.4949C69.6938 32.3109 69.7778 33.1389 69.8738 33.9789C69.8498 34.2189 69.6698 34.4709 69.3338 34.7349C68.9978 34.9749 68.6978 35.0949 68.4338 35.0949C67.9778 35.0949 67.5098 35.0109 67.0298 34.8429C66.5738 34.6509 66.2978 34.4229 66.2018 34.1589C66.0578 33.3909 65.9858 32.7069 65.9858 32.1069C65.9858 30.1389 65.9258 27.9309 65.8058 25.4829C65.7098 23.3229 65.6618 21.8109 65.6618 20.9469C65.6618 20.5149 65.8778 20.1429 66.3098 19.8309C66.7418 19.5189 67.1978 19.3629 67.6778 19.3629C68.3738 19.3629 68.8538 19.5189 69.1178 19.8309C69.4058 20.1429 69.5498 20.6349 69.5498 21.3069V27.7869ZM84.1247 26.8509C84.3167 26.9709 84.6887 27.1989 85.2407 27.5349C85.8167 27.8469 86.2007 28.2189 86.3927 28.6509C86.5847 29.0829 86.6807 29.6829 86.6807 30.4509C86.6807 31.3149 86.4287 32.0829 85.9247 32.7549C85.4207 33.4029 84.7727 33.9069 83.9807 34.2669C83.4047 34.5309 82.6967 34.7349 81.8567 34.8789C81.0407 35.0229 80.3927 35.0949 79.9127 35.0949C79.4327 35.0949 78.8087 35.0229 78.0407 34.8789C77.2967 34.7349 76.7807 34.6029 76.4927 34.4829C75.7487 34.0509 75.1007 33.5229 74.5487 32.8989C74.0207 32.2749 73.7567 31.6389 73.7567 30.9909C73.7567 30.5109 73.9127 30.1389 74.2247 29.8749C74.5367 29.5869 74.9447 29.4429 75.4487 29.4429C75.6887 29.4429 75.9407 29.5389 76.2047 29.7309C76.4687 29.8989 76.6487 30.0789 76.7447 30.2709C77.0087 30.8949 77.4527 31.3629 78.0767 31.6749C78.7007 31.9869 79.3367 32.1429 79.9847 32.1429C80.8247 32.1429 81.6047 32.0109 82.3247 31.7469C83.0447 31.4589 83.4047 31.0749 83.4047 30.5949C83.4047 30.3789 83.3447 30.2109 83.2247 30.0909C83.1287 29.9469 82.9847 29.8029 82.7927 29.6589C82.4567 29.4189 81.9527 29.2269 81.2807 29.0829C80.6087 28.9149 80.1767 28.8069 79.9847 28.7589C79.0007 28.5429 78.0407 28.2189 77.1047 27.7869C76.1687 27.3309 75.4247 26.7909 74.8727 26.1669C74.3207 25.5429 74.0447 24.7389 74.0447 23.7549C74.0447 23.1069 74.2847 22.4349 74.7647 21.7389C75.2447 21.0189 75.7847 20.5149 76.3847 20.2269C76.8167 20.0589 77.5367 19.8789 78.5447 19.6869C79.5767 19.4949 80.2727 19.3989 80.6327 19.3989C81.1847 19.3989 81.7847 19.4589 82.4327 19.5789C83.0807 19.6749 83.5727 19.8429 83.9087 20.0829C84.5567 20.4669 85.0847 20.8749 85.4927 21.3069C85.9007 21.7149 86.1047 22.1829 86.1047 22.7109C86.1047 22.9749 86.0447 23.2629 85.9247 23.5749C85.8047 23.8629 85.6607 24.0429 85.4927 24.1149C85.1327 24.2829 84.7127 24.3669 84.2327 24.3669C84.0167 24.3669 83.8367 24.3069 83.6927 24.1869C83.5727 24.0669 83.4047 23.8749 83.1887 23.6109C82.9247 23.2029 82.6727 22.9629 82.4327 22.8909C82.1447 22.8189 81.7247 22.7349 81.1727 22.6389C80.6207 22.5189 80.2487 22.4589 80.0567 22.4589C79.5047 22.4589 78.9287 22.6149 78.3287 22.9269C77.7527 23.2389 77.4647 23.5989 77.4647 24.0069C77.4647 24.2229 77.5487 24.3909 77.7167 24.5109C77.9087 24.6309 78.1007 24.7389 78.2927 24.8349C78.5087 24.9309 78.6527 24.9909 78.7247 25.0149C79.2287 25.2549 79.7807 25.4589 80.3807 25.6269C81.0047 25.7949 81.3887 25.9029 81.5327 25.9509C82.8287 26.2629 83.6927 26.5629 84.1247 26.8509ZM90.076 22.4229C89.74 22.3749 89.464 22.2429 89.248 22.0269C89.056 21.7869 88.96 21.4989 88.96 21.1629C88.96 20.7309 89.128 20.3709 89.464 20.0829C89.536 20.0109 89.656 19.9509 89.824 19.9029C89.992 19.8309 90.124 19.7709 90.22 19.7229C90.748 19.5549 91.084 19.4229 91.228 19.3269C91.78 18.9909 92.152 18.4389 92.344 17.6709C92.536 16.7589 92.656 16.1349 92.704 15.7989C92.752 15.2709 92.92 14.8749 93.208 14.6109C93.52 14.3229 93.904 14.1789 94.36 14.1789C94.96 14.1789 95.38 14.3349 95.62 14.6469C95.86 14.9589 95.98 15.5349 95.98 16.3749C95.98 17.4789 95.716 18.5229 95.188 19.5069C95.524 19.5069 96.076 19.4829 96.844 19.4349C97.996 19.3869 98.8 19.3629 99.256 19.3629C99.664 19.3629 100.012 19.4709 100.3 19.6869C100.612 19.8789 100.768 20.1669 100.768 20.5509C100.768 21.4629 100.348 22.0029 99.508 22.1709C98.74 22.3869 97.348 22.5189 95.332 22.5669C95.164 24.9189 95.08 26.7789 95.08 28.1469C95.08 28.9869 95.116 29.5869 95.188 29.9469C95.332 30.6909 95.572 31.2429 95.908 31.6029C96.268 31.9389 96.796 32.1069 97.492 32.1069C97.828 32.1069 98.332 32.0229 99.004 31.8549C99.412 31.7349 99.736 31.6749 99.976 31.6749C100.288 31.6749 100.528 31.7829 100.696 31.9989C100.864 32.2149 100.948 32.5029 100.948 32.8629C100.948 33.5109 100.528 34.0509 99.688 34.4829C98.848 34.8909 97.852 35.0949 96.7 35.0949C95.98 35.0949 95.272 34.9269 94.576 34.5909C93.88 34.2309 93.292 33.7989 92.812 33.2949C92.716 33.2469 92.572 32.9829 92.38 32.5029C92.212 32.0229 92.044 31.4949 91.876 30.9189C91.804 30.6309 91.768 29.9349 91.768 28.8309C91.768 27.7749 91.84 25.9509 91.984 23.3589L92.02 22.5669C91.852 22.5669 91.54 22.5549 91.084 22.5309C90.628 22.4829 90.292 22.4469 90.076 22.4229ZM117.725 23.3949C117.917 23.7309 118.073 24.2229 118.193 24.8709C118.313 25.4949 118.373 26.0589 118.373 26.5629C118.373 27.2109 118.301 27.9309 118.157 28.7229C118.013 29.5149 117.881 30.1269 117.761 30.5589C116.105 33.5829 113.657 35.0949 110.417 35.0949C109.217 35.0949 107.993 34.6989 106.745 33.9069C105.497 33.1149 104.633 32.2029 104.153 31.1709C103.505 29.1309 103.181 27.8229 103.181 27.2469C103.181 26.2869 103.385 25.2669 103.793 24.1869C104.225 23.1069 104.765 22.1709 105.413 21.3789C105.845 20.8269 106.589 20.3589 107.645 19.9749C108.701 19.5669 109.661 19.3629 110.525 19.3629C112.205 19.3629 113.621 19.6869 114.773 20.3349C115.949 20.9589 116.933 21.9789 117.725 23.3949ZM114.593 29.1909C114.713 28.9509 114.773 28.1469 114.773 26.7789C114.773 26.0829 114.641 25.3989 114.377 24.7269C114.137 24.0549 113.777 23.4789 113.297 22.9989C113.249 22.9509 113.117 22.8789 112.901 22.7829C112.685 22.6629 112.385 22.5549 112.001 22.4589C111.641 22.3389 111.221 22.2789 110.741 22.2789C109.397 22.2789 108.413 22.8189 107.789 23.8989C107.165 24.9789 106.853 26.2029 106.853 27.5709C106.853 27.7869 106.925 28.2309 107.069 28.9029C107.213 29.5749 107.321 30.0069 107.393 30.1989C107.585 30.5349 107.969 30.9309 108.545 31.3869C109.145 31.8189 109.793 32.0349 110.489 32.0349C111.569 32.0349 112.421 31.7829 113.045 31.2789C113.693 30.7509 114.209 30.0549 114.593 29.1909ZM126.826 33.5109C126.778 33.9189 126.61 34.2789 126.322 34.5909C126.034 34.9029 125.662 35.0589 125.206 35.0589C124.486 35.0589 123.958 34.9269 123.622 34.6629C123.286 34.3749 123.118 33.8589 123.118 33.1149C123.118 32.1069 123.178 31.0029 123.298 29.8029C123.394 28.4109 123.442 27.3429 123.442 26.5989C123.442 26.2149 123.418 25.7349 123.37 25.1589C123.322 24.6309 123.298 24.2349 123.298 23.9709C123.226 23.5629 123.058 23.2389 122.794 22.9989C122.554 22.7589 122.17 22.5549 121.642 22.3869C121.426 22.2909 121.246 22.1349 121.102 21.9189C120.958 21.6789 120.886 21.4629 120.886 21.2709C120.886 20.7189 121.102 20.2989 121.534 20.0109C121.966 19.7229 122.494 19.5789 123.118 19.5789C123.814 19.5789 124.414 19.8189 124.918 20.2989C125.422 20.7789 125.806 21.3789 126.07 22.0989C126.622 21.3069 127.294 20.6709 128.086 20.1909C128.902 19.7109 129.694 19.4709 130.462 19.4709C131.446 19.4709 132.274 19.6389 132.946 19.9749C133.642 20.2869 133.99 20.8389 133.99 21.6309C133.99 22.0869 133.786 22.5669 133.378 23.0709C132.994 23.5509 132.598 23.7909 132.19 23.7909C131.878 23.7909 131.506 23.6469 131.074 23.3589C130.906 23.2389 130.714 23.1429 130.498 23.0709C130.306 22.9749 130.102 22.9269 129.886 22.9269C129.502 22.9269 129.142 22.9869 128.806 23.1069C128.47 23.2269 128.242 23.3709 128.122 23.5389C127.738 24.1389 127.45 24.6789 127.258 25.1589C127.09 25.6389 127.006 26.1549 127.006 26.7069C127.006 27.1149 126.994 27.4389 126.97 27.6789L126.934 29.7309L126.97 31.0989C126.97 32.1069 126.922 32.9109 126.826 33.5109ZM140.055 42.2949C139.143 42.2949 138.375 42.1389 137.751 41.8269C137.151 41.5389 136.695 41.1789 136.383 40.7469C136.095 40.3389 135.951 39.9789 135.951 39.6669C135.951 39.2589 136.095 38.9349 136.383 38.6949C136.671 38.4789 137.019 38.3709 137.427 38.3709C137.667 38.3709 137.895 38.4429 138.111 38.5869C138.327 38.7309 138.447 38.8149 138.471 38.8389C138.639 38.9589 138.807 39.0549 138.975 39.1269C139.143 39.2229 139.323 39.2709 139.515 39.2709C140.043 39.2709 140.475 38.9229 140.811 38.2269C141.147 37.5309 141.483 36.4029 141.819 34.8429C140.739 33.2589 139.839 31.6749 139.119 30.0909L138.291 28.1829C138.171 27.8949 137.835 27.1509 137.283 25.9509C136.755 24.7269 136.227 23.6469 135.699 22.7109C135.363 22.0389 135.195 21.5829 135.195 21.3429C135.195 20.7429 135.399 20.2989 135.807 20.0109C136.239 19.7229 136.731 19.5789 137.283 19.5789C137.667 19.5789 137.955 19.6629 138.147 19.8309C138.363 19.9749 138.603 20.2509 138.867 20.6589C139.563 21.8109 140.319 23.5389 141.135 25.8429C141.615 27.1629 141.999 28.1709 142.287 28.8669C142.575 29.5389 142.923 30.2229 143.331 30.9189C143.739 29.9829 144.255 28.3869 144.879 26.1309C145.263 24.8349 145.575 23.8029 145.815 23.0349C146.079 22.2429 146.367 21.5229 146.679 20.8749C146.895 20.4429 147.159 20.0949 147.471 19.8309C147.807 19.5669 148.179 19.4349 148.587 19.4349C148.995 19.4349 149.427 19.5909 149.883 19.9029C150.363 20.1909 150.603 20.5389 150.603 20.9469C150.603 21.1869 150.519 21.4749 150.351 21.8109C149.415 23.9709 148.587 26.0109 147.867 27.9309C147.171 29.8269 146.499 31.9149 145.851 34.1949C145.467 35.4669 145.059 36.6789 144.627 37.8309C144.219 38.9829 143.931 39.6909 143.763 39.9549C143.283 40.6269 142.743 41.1789 142.143 41.6109C141.543 42.0669 140.847 42.2949 140.055 42.2949Z" fill="white"/>
<path d="M38 38.5509H151.107V40.3509H38V38.5509Z" fill="white"/>
<path d="M23.75 17.3137L23.75 22.653L23.75 42.0573L19 40.4402L14.25 42.0573L9.5 40.4402L4.75 42.0573L4.75 16.9509C4.75 15.0653 4.75 14.1225 5.33579 13.5367C5.92157 12.9509 6.86438 12.9509 8.75 12.9509L23.8824 12.9509C25.2829 12.9509 25.8407 14.7615 24.6831 15.5496C24.0993 15.9471 23.75 16.6075 23.75 17.3137Z" fill="black" fill-opacity="0.24"/>
<path d="M28.5 12.9509V12.9509C30.133 12.9509 30.9495 12.9509 31.5769 13.2603C32.1692 13.5523 32.6485 14.0317 32.9406 14.624C33.25 15.2514 33.25 16.0679 33.25 17.7009L33.25 21.653C33.25 22.1244 33.25 22.3601 33.1036 22.5065C32.9571 22.653 32.7214 22.653 32.25 22.653L23.75 22.653M28.5 12.9509V12.9509C26.867 12.9509 26.0505 12.9509 25.4231 13.2603C24.8308 13.5523 24.3515 14.0317 24.0594 14.624C23.75 15.2514 23.75 16.0679 23.75 17.7009L23.75 22.653M28.5 12.9509L8.75 12.9509C6.86438 12.9509 5.92157 12.9509 5.33579 13.5367C4.75 14.1225 4.75 15.0653 4.75 16.9509L4.75 42.0573L9.5 40.4402L14.25 42.0573L19 40.4402L23.75 42.0573L23.75 22.653" stroke="white" stroke-width="3.4"/>
<path d="M11.0833 19.4189L17.4166 19.4189" stroke="white" stroke-width="2.2" stroke-linecap="round"/>
<path d="M12.6667 25.8871H11.0834" stroke="white" stroke-width="2.2" stroke-linecap="round"/>
<path d="M11.0833 32.3552L15.8333 32.3552" stroke="white" stroke-width="2.2" stroke-linecap="round"/>
</svg>
