<svg width="196" height="48" viewBox="0 0 196 48" fill="none" xmlns="http://www.w3.org/2000/svg">
<path d="M50.428 12.0909C50.884 12.0909 51.292 12.2109 51.652 12.4509C52.036 12.6909 52.264 13.1109 52.336 13.7109C52.624 15.6069 52.804 17.5029 52.876 19.3989C52.972 21.2709 53.02 23.3949 53.02 25.7709C53.02 26.7789 52.936 28.6149 52.768 31.2789C53.824 31.3749 54.64 31.4229 55.216 31.4229C55.624 31.4229 56.548 31.3629 57.988 31.2429C58.828 31.1229 59.56 31.0629 60.184 31.0629C60.76 31.0629 61.288 31.1229 61.768 31.2429C62.248 31.3389 62.74 31.5069 63.244 31.7469C63.748 32.0349 64 32.4789 64 33.0789C64 33.5589 63.844 33.9909 63.532 34.3749C63.244 34.7589 62.896 34.9509 62.488 34.9509C62.2 34.9509 61.744 34.9029 61.12 34.8069C59.992 34.6389 58.912 34.5549 57.88 34.5549C57.544 34.5549 57.16 34.5789 56.728 34.6269C56.32 34.6509 56.02 34.6629 55.828 34.6629C55.252 34.7349 54.676 34.7709 54.1 34.7709C52.924 34.7709 51.868 34.7109 50.932 34.5909C50.452 34.5429 49.972 34.3629 49.492 34.0509C49.012 33.7149 48.772 33.2349 48.772 32.6109C48.772 32.2509 48.82 31.3269 48.916 29.8389C49.084 27.3669 49.168 25.4829 49.168 24.1869C49.168 23.1789 49.12 22.1229 49.024 21.0189C48.928 19.9149 48.868 19.2189 48.844 18.9309C48.628 16.8909 48.52 15.2109 48.52 13.8909C48.52 13.2669 48.664 12.8109 48.952 12.5229C49.264 12.2349 49.756 12.0909 50.428 12.0909ZM82.4638 33.2229C82.4638 33.7509 82.1758 34.1949 81.5998 34.5549C81.0478 34.9149 80.5318 35.0949 80.0518 35.0949C79.1398 35.0949 78.4078 34.9869 77.8558 34.7709C77.3278 34.5309 76.8358 34.0989 76.3798 33.4749C75.7558 34.0269 74.9038 34.4469 73.8238 34.7349C72.7438 34.9989 71.7478 35.1309 70.8358 35.1309C69.3478 35.1309 68.1238 34.7349 67.1638 33.9429C66.2038 33.1269 65.7238 31.9389 65.7238 30.3789C65.7238 29.7069 65.9038 29.0949 66.2638 28.5429C66.6238 27.9669 67.1158 27.4629 67.7398 27.0309C68.4358 26.5749 69.2278 26.2269 70.1158 25.9869C71.0038 25.7229 71.9278 25.5909 72.8878 25.5909C73.3918 25.5909 73.9918 25.6869 74.6878 25.8789C75.3838 26.0709 75.9238 26.2749 76.3078 26.4909V25.9149C76.3078 24.6189 75.9958 23.7309 75.3718 23.2509C74.7478 22.7469 73.7398 22.4949 72.3478 22.4949C71.9398 22.4949 71.5318 22.5789 71.1238 22.7469C70.7398 22.9149 70.2958 23.1429 69.7918 23.4309C69.1198 23.7909 68.4838 23.9709 67.8838 23.9709C67.6678 23.9709 67.4638 23.8269 67.2718 23.5389C67.0798 23.2269 66.9838 22.9509 66.9838 22.7109C66.9838 22.0149 67.3078 21.4149 67.9558 20.9109C68.6278 20.4069 69.4198 20.0349 70.3318 19.7949C71.2438 19.5309 72.0598 19.3989 72.7798 19.3989C73.4998 19.3989 74.3278 19.5429 75.2638 19.8309C76.1998 20.0949 76.9678 20.4669 77.5678 20.9469C78.2878 21.5709 78.8398 22.3029 79.2238 23.1429C79.6318 23.9589 79.8358 24.8589 79.8358 25.8429C79.8358 26.1549 79.8118 26.6229 79.7638 27.2469C79.7158 27.9189 79.6918 28.4949 79.6918 28.9749C79.6918 29.1909 79.6678 29.5149 79.6198 29.9469C79.5718 30.4749 79.5478 30.8949 79.5478 31.2069C79.5478 31.4949 79.6558 31.7469 79.8718 31.9629C80.0878 32.1549 80.3398 32.2509 80.6278 32.2509L81.6358 32.2149C81.8998 32.2149 82.1038 32.3109 82.2478 32.5029C82.3918 32.6949 82.4638 32.9349 82.4638 33.2229ZM70.8718 32.2869C71.9038 32.2869 72.7678 32.1789 73.4638 31.9629C74.1598 31.7469 74.9998 31.3509 75.9838 30.7749C76.0798 30.3669 76.1398 29.8269 76.1638 29.1549C74.8438 28.5309 73.7518 28.2189 72.8878 28.2189C71.9038 28.2189 71.0278 28.3989 70.2598 28.7589C69.4918 29.1189 69.1078 29.7549 69.1078 30.6669C69.1078 31.1229 69.2998 31.5069 69.6838 31.8189C70.0678 32.1309 70.4638 32.2869 70.8718 32.2869ZM101.273 32.1789C101.393 32.2269 101.585 32.2869 101.849 32.3589C102.113 32.4309 102.305 32.5029 102.425 32.5749C102.545 32.6469 102.605 32.7549 102.605 32.8989C102.629 33.4749 102.413 33.9549 101.957 34.3389C101.525 34.6989 101.009 34.8789 100.409 34.8789C99.4732 34.8789 98.7412 34.6269 98.2132 34.1229C97.6852 33.6189 97.3012 32.8509 97.0612 31.8189C96.9652 31.4109 96.9172 30.8469 96.9172 30.1269C96.9172 29.7189 96.9412 29.0589 96.9892 28.1469C97.0372 27.1869 97.0612 26.4189 97.0612 25.8429C97.0612 25.0029 96.8212 24.2709 96.3412 23.6469C95.8852 22.9989 95.2372 22.6749 94.3972 22.6749C93.8932 22.6749 93.3652 22.8309 92.8132 23.1429C92.2612 23.4309 91.8772 23.7909 91.6612 24.2229C91.3012 24.9189 91.0492 25.6749 90.9052 26.4909C90.6412 27.9309 90.5092 29.4309 90.5092 30.9909C90.5092 31.7349 90.5212 32.3109 90.5452 32.7189C90.5452 32.8149 90.5452 33.0069 90.5452 33.2949C90.5692 33.5589 90.5452 33.8109 90.4732 34.0509C90.4252 34.2669 90.3292 34.4709 90.1852 34.6629C90.0652 34.7829 89.8732 34.8789 89.6092 34.9509C89.3692 35.0469 89.1412 35.0949 88.9252 35.0949C88.5892 35.0949 88.1692 34.9509 87.6652 34.6629C87.1612 34.3749 86.8732 34.0509 86.8012 33.6909L86.7652 33.0789C86.7652 32.8629 86.7892 32.6109 86.8372 32.3229C87.1252 30.6429 87.2692 29.1789 87.2692 27.9309C87.2692 27.3789 87.2572 26.9469 87.2332 26.6349L87.1972 24.9429C87.1972 24.3669 87.0532 23.8149 86.7652 23.2869C86.4772 22.7349 86.1412 22.4589 85.7572 22.4589C85.6372 22.4589 85.4692 22.5069 85.2532 22.6029C85.0372 22.6749 84.8572 22.7109 84.7132 22.7109C84.4732 22.7109 84.2092 22.5909 83.9212 22.3509C83.6572 22.1109 83.5252 21.8589 83.5252 21.5949C83.5252 21.0909 83.6932 20.6829 84.0292 20.3709C84.3892 20.0829 84.7372 19.8549 85.0732 19.6869C85.4332 19.5189 85.8412 19.4349 86.2972 19.4349C86.6812 19.4349 86.9932 19.4709 87.2332 19.5429C87.4732 19.6149 87.7972 19.7709 88.2052 20.0109C88.4212 20.1309 88.6732 20.3949 88.9612 20.8029C89.2492 21.2109 89.4892 21.7869 89.6812 22.5309C90.3052 21.3789 91.0732 20.5749 91.9852 20.1189C92.9212 19.6389 94.1092 19.3989 95.5492 19.3989C96.1012 19.3989 96.6892 19.5789 97.3132 19.9389C97.9612 20.2989 98.5132 20.7189 98.9692 21.1989C99.4012 21.7269 99.7612 22.3869 100.049 23.1789C100.337 23.9469 100.481 24.6429 100.481 25.2669C100.481 25.6269 100.457 26.2149 100.409 27.0309C100.337 27.6789 100.301 28.3629 100.301 29.0829C100.301 30.7629 100.625 31.7949 101.273 32.1789ZM119.037 25.9149C119.037 27.0189 118.761 27.9549 118.209 28.7229C117.657 29.4669 116.925 30.1269 116.013 30.7029C114.765 31.3749 113.313 31.7229 111.657 31.7469C111.561 32.0349 111.513 32.3349 111.513 32.6469C111.513 32.9349 111.669 33.1509 111.981 33.2949C112.317 33.4149 112.905 33.5109 113.745 33.5829C114.441 33.6309 115.221 33.7869 116.085 34.0509C116.973 34.2909 117.669 34.5669 118.173 34.8789C118.797 35.3349 119.229 35.8269 119.469 36.3549C119.733 36.8829 119.865 37.5429 119.865 38.3349C119.865 39.3669 119.385 40.2309 118.425 40.9269C117.489 41.6469 116.385 42.1749 115.113 42.5109C113.841 42.8469 112.725 43.0149 111.765 43.0149C110.613 43.0149 109.629 42.8709 108.813 42.5829C108.021 42.3189 107.265 41.9469 106.545 41.4669C106.041 41.1069 105.645 40.6509 105.357 40.0989C105.069 39.5469 104.925 38.9709 104.925 38.3709C104.925 37.7709 105.117 37.1949 105.501 36.6429C105.909 36.0909 106.401 35.6109 106.977 35.2029C107.553 34.8189 108.093 34.5549 108.597 34.4109C108.405 34.1709 108.261 33.9669 108.165 33.7989C108.093 33.6069 108.057 33.3909 108.057 33.1509C108.057 32.3349 108.261 31.6509 108.669 31.0989C107.517 30.7149 106.605 30.0309 105.933 29.0469C105.285 28.0629 104.961 26.9109 104.961 25.5909C104.961 24.7269 105.165 23.9469 105.573 23.2509C105.981 22.5309 106.545 21.8469 107.265 21.1989C108.489 20.0949 110.181 19.5429 112.341 19.5429C112.629 19.5429 113.025 19.5909 113.529 19.6869C114.033 19.7829 114.525 19.9149 115.005 20.0829C115.773 19.7469 116.673 19.3989 117.705 19.0389C118.737 18.6789 119.433 18.4989 119.793 18.4989C120.345 18.4989 120.753 18.5949 121.017 18.7869C121.305 18.9549 121.449 19.3389 121.449 19.9389C121.449 20.4909 121.125 20.8869 120.477 21.1269C119.853 21.3669 118.905 21.5949 117.633 21.8109C118.569 22.9389 119.037 24.3069 119.037 25.9149ZM111.549 28.7949C112.941 28.7949 113.949 28.5069 114.573 27.9309C115.221 27.3549 115.545 26.4909 115.545 25.3389C115.545 23.4429 114.429 22.4949 112.197 22.4949C111.333 22.4949 110.649 22.5909 110.145 22.7829C109.665 22.9749 109.269 23.2989 108.957 23.7549C108.525 24.3309 108.309 25.1109 108.309 26.0949C108.309 26.8629 108.621 27.5109 109.245 28.0389C109.893 28.5429 110.661 28.7949 111.549 28.7949ZM108.309 38.6229C108.309 39.0309 108.681 39.3789 109.425 39.6669C110.193 39.9789 111.009 40.1349 111.873 40.1349C112.833 40.1349 113.817 39.9549 114.825 39.5949C115.857 39.2589 116.373 38.8029 116.373 38.2269C116.373 37.3869 115.629 36.8469 114.141 36.6069C113.613 36.5109 112.845 36.3309 111.837 36.0669C111.717 36.0429 111.573 36.0069 111.405 35.9589C111.261 35.9109 111.105 35.8629 110.937 35.8149C110.409 36.0069 109.833 36.4029 109.209 37.0029C108.609 37.6269 108.309 38.1669 108.309 38.6229ZM125.042 19.3269C126.626 19.3269 127.418 20.3709 127.418 22.4589C127.418 22.7229 127.394 23.3109 127.346 24.2229C127.298 25.2789 127.274 26.1069 127.274 26.7069C127.274 28.3869 127.502 29.7429 127.958 30.7749C128.126 31.1109 128.426 31.3749 128.858 31.5669C129.314 31.7589 129.698 31.8549 130.01 31.8549C130.49 31.8549 130.886 31.7949 131.198 31.6749C131.51 31.5549 131.798 31.3749 132.062 31.1349C132.35 30.8949 132.626 30.6309 132.89 30.3429C133.346 29.8389 133.634 29.2629 133.754 28.6149C133.898 27.9429 133.982 27.0549 134.006 25.9509C134.006 25.2549 134.042 24.5829 134.114 23.9349C134.258 22.8789 134.33 21.8949 134.33 20.9829C134.33 20.4789 134.462 20.0589 134.726 19.7229C135.014 19.3629 135.422 19.1829 135.95 19.1829C136.214 19.1829 136.526 19.2789 136.886 19.4709C137.27 19.6389 137.522 19.8309 137.642 20.0469C137.81 20.3349 137.894 20.7309 137.894 21.2349C137.894 21.5469 137.858 21.8349 137.786 22.0989C137.666 22.4589 137.606 22.9149 137.606 23.4669C137.606 23.7549 137.63 24.2349 137.678 24.9069C137.75 25.4109 137.786 25.9269 137.786 26.4549C137.786 28.0629 137.906 29.2509 138.146 30.0189C138.41 30.8349 138.77 31.5549 139.226 32.1789C139.706 32.6829 140.03 33.0549 140.198 33.2949C140.366 33.5109 140.45 33.7029 140.45 33.8709C140.45 34.1589 140.306 34.4349 140.018 34.6989C139.73 34.9629 139.43 35.0949 139.118 35.0949C138.23 35.0949 137.45 34.7949 136.778 34.1949C136.13 33.5709 135.65 32.7789 135.338 31.8189C135.074 32.1309 134.726 32.5149 134.294 32.9709C133.862 33.4269 133.454 33.7989 133.07 34.0869C132.134 34.7589 130.934 35.0949 129.47 35.0949C128.87 35.0949 128.21 34.9149 127.49 34.5549C126.794 34.1949 126.158 33.7269 125.582 33.1509C125.006 32.5509 124.61 31.9149 124.394 31.2429C124.37 31.1949 124.298 31.0029 124.178 30.6669C124.082 30.3309 124.034 29.8269 124.034 29.1549L123.998 23.3949C123.998 23.0589 123.914 22.5309 123.746 21.8109C123.602 21.3309 123.53 20.9709 123.53 20.7309C123.53 20.3229 123.662 19.9869 123.926 19.7229C124.214 19.4589 124.586 19.3269 125.042 19.3269ZM159.49 33.2229C159.49 33.7509 159.202 34.1949 158.626 34.5549C158.05 34.9149 157.522 35.0949 157.042 35.0949C156.154 35.0949 155.434 34.9869 154.882 34.7709C154.354 34.5309 153.85 34.0989 153.37 33.4749C152.77 34.0269 151.93 34.4469 150.85 34.7349C149.77 34.9989 148.774 35.1309 147.862 35.1309C146.374 35.1309 145.138 34.7349 144.154 33.9429C143.194 33.1269 142.714 31.9389 142.714 30.3789C142.714 29.7069 142.918 29.0349 143.326 28.3629C143.734 27.6669 144.238 27.1149 144.838 26.7069C145.486 26.2749 146.218 25.9869 147.034 25.8429C147.85 25.6749 148.798 25.5909 149.878 25.5909C150.382 25.5909 150.982 25.6869 151.678 25.8789C152.374 26.0709 152.926 26.2749 153.334 26.4909V25.9149C153.334 24.6189 153.01 23.7309 152.362 23.2509C151.738 22.7469 150.73 22.4949 149.338 22.4949C148.906 22.4949 148.51 22.5669 148.15 22.7109C147.814 22.8309 147.418 23.0109 146.962 23.2509C146.53 23.4909 146.122 23.6109 145.738 23.6109C145.402 23.6109 145.078 23.4789 144.766 23.2149C144.454 22.9269 144.298 22.6269 144.298 22.3149C144.298 21.3069 144.922 20.5749 146.17 20.1189C147.442 19.6389 148.738 19.3989 150.058 19.3989C150.73 19.3989 151.498 19.5429 152.362 19.8309C153.226 20.0949 153.958 20.4669 154.558 20.9469C155.278 21.5469 155.83 22.2669 156.214 23.1069C156.622 23.9469 156.826 24.8589 156.826 25.8429C156.826 26.1549 156.802 26.6229 156.754 27.2469C156.706 27.9189 156.682 28.4949 156.682 28.9749L156.646 29.9469C156.598 30.4749 156.574 30.8949 156.574 31.2069C156.574 31.4949 156.67 31.7469 156.862 31.9629C157.078 32.1549 157.33 32.2509 157.618 32.2509L158.626 32.2149C158.89 32.2149 159.094 32.3229 159.238 32.5389C159.406 32.7309 159.49 32.9589 159.49 33.2229ZM147.862 32.2869C148.894 32.2869 149.758 32.1789 150.454 31.9629C151.15 31.7469 151.99 31.3509 152.974 30.7749C153.07 30.3669 153.13 29.8269 153.154 29.1549C151.834 28.5309 150.742 28.2189 149.878 28.2189C149.062 28.2189 148.402 28.2549 147.898 28.3269C147.394 28.3749 146.938 28.5789 146.53 28.9389C146.122 29.2989 145.918 29.8749 145.918 30.6669C145.918 31.1229 146.134 31.5069 146.566 31.8189C147.022 32.1309 147.454 32.2869 147.862 32.2869ZM164.514 34.4109C164.346 34.0509 164.262 33.6309 164.262 33.1509C164.262 32.6949 164.598 32.0109 165.27 31.0989C164.118 30.7149 163.206 30.0309 162.534 29.0469C161.886 28.0629 161.562 26.9109 161.562 25.5909C161.562 24.7269 161.766 23.9469 162.174 23.2509C162.582 22.5309 163.146 21.8469 163.866 21.1989C165.09 20.0949 166.782 19.5429 168.942 19.5429C169.806 19.5429 170.874 19.7349 172.146 20.1189C173.658 18.8229 174.99 18.1749 176.142 18.1749C176.862 18.1749 177.378 18.3189 177.69 18.6069C178.026 18.8709 178.194 19.3389 178.194 20.0109C178.194 20.2749 178.086 20.5269 177.87 20.7669C177.678 20.9829 177.426 21.0909 177.114 21.0909L175.818 21.0549C175.002 21.0549 174.414 21.2109 174.054 21.5229C174.51 22.0749 174.882 22.7829 175.17 23.6469C175.482 24.5109 175.638 25.4949 175.638 26.5989C175.638 28.0629 174.63 29.4309 172.614 30.7029C171.366 31.3749 169.914 31.7229 168.258 31.7469C168.066 31.9389 167.898 32.1189 167.754 32.2869C167.634 32.4309 167.574 32.5509 167.574 32.6469C167.574 32.9109 167.802 33.1149 168.258 33.2589C168.714 33.4029 169.41 33.5109 170.346 33.5829C171.042 33.6309 171.822 33.7869 172.686 34.0509C173.574 34.2909 174.27 34.5669 174.774 34.8789C175.398 35.3349 175.83 35.8269 176.07 36.3549C176.334 36.8829 176.466 37.5429 176.466 38.3349C176.466 39.3669 175.986 40.2309 175.026 40.9269C174.09 41.6469 172.986 42.1749 171.714 42.5109C170.442 42.8469 169.326 43.0149 168.366 43.0149C167.214 43.0149 166.23 42.8709 165.414 42.5829C164.622 42.3189 163.866 41.9469 163.146 41.4669C162.642 41.1069 162.246 40.6509 161.958 40.0989C161.67 39.5469 161.526 38.9709 161.526 38.3709C161.526 37.8909 161.886 37.2429 162.606 36.4269C163.35 35.6109 164.07 35.0469 164.766 34.7349C164.694 34.6629 164.61 34.5549 164.514 34.4109ZM168.15 28.7949C169.278 28.7949 170.226 28.4949 170.994 27.8949C171.762 27.2709 172.146 26.4189 172.146 25.3389C172.146 24.4749 171.894 23.7909 171.39 23.2869C170.886 22.7589 170.178 22.4949 169.266 22.4949C167.37 22.4949 166.134 22.9149 165.558 23.7549C165.414 23.9469 165.27 24.3189 165.126 24.8709C164.982 25.3989 164.91 25.8069 164.91 26.0949C164.91 26.5029 165.054 26.9229 165.342 27.3549C165.654 27.7629 166.062 28.1109 166.566 28.3989C167.07 28.6629 167.598 28.7949 168.15 28.7949ZM164.91 38.6229C164.91 39.0309 165.282 39.3789 166.026 39.6669C166.794 39.9789 167.61 40.1349 168.474 40.1349C169.434 40.1349 170.418 39.9549 171.426 39.5949C172.458 39.2589 172.974 38.8029 172.974 38.2269C172.974 37.3869 172.23 36.8469 170.742 36.6069C169.11 36.3189 167.826 36.0549 166.89 35.8149C166.794 36.1509 166.47 36.5829 165.918 37.1109C165.558 37.4709 165.294 37.7469 165.126 37.9389C164.982 38.1549 164.91 38.3829 164.91 38.6229ZM179.983 27.3189C179.983 26.4069 180.151 25.4949 180.487 24.5829C180.823 23.6469 181.267 22.7949 181.819 22.0269C182.371 21.2589 183.247 20.6349 184.447 20.1549C185.647 19.6509 186.715 19.3989 187.651 19.3989C188.611 19.3989 189.583 19.5309 190.567 19.7949C191.575 20.0589 192.271 20.4669 192.655 21.0189C193.543 22.2669 193.987 23.4909 193.987 24.6909C193.987 25.3389 193.843 25.8909 193.555 26.3469C193.291 26.8029 192.907 27.2949 192.403 27.8229C191.995 28.2549 191.347 28.5429 190.459 28.6869C189.595 28.8309 188.731 28.9029 187.867 28.9029C187.315 28.9029 186.643 28.8549 185.851 28.7589C185.059 28.6389 184.291 28.4949 183.547 28.3269C183.595 28.8069 183.715 29.2749 183.907 29.7309C184.099 30.1869 184.327 30.5349 184.591 30.7749C185.071 31.2309 185.563 31.5189 186.067 31.6389C186.595 31.7589 187.267 31.8189 188.083 31.8189C188.947 31.8189 189.751 31.6749 190.495 31.3869C191.095 31.1709 191.587 31.0629 191.971 31.0629C192.427 31.0629 192.775 31.2069 193.015 31.4949C193.255 31.7589 193.375 32.1069 193.375 32.5389C193.375 33.1389 193.027 33.6309 192.331 34.0149C191.635 34.3989 190.831 34.6869 189.919 34.8789C189.031 35.0469 188.311 35.1309 187.759 35.1309C186.631 35.1309 185.539 34.9269 184.483 34.5189C183.427 34.1109 182.551 33.5349 181.855 32.7909C181.279 32.1189 180.823 31.3149 180.487 30.3789C180.151 29.4189 179.983 28.3989 179.983 27.3189ZM187.831 22.4589C187.303 22.4589 186.775 22.5669 186.247 22.7829C185.719 22.9749 185.287 23.2509 184.951 23.6109C184.519 24.0669 184.219 24.4389 184.051 24.7269C183.907 24.9909 183.811 25.3629 183.763 25.8429C184.363 26.0349 185.611 26.1309 187.507 26.1309C188.539 26.1309 189.331 25.9749 189.883 25.6629C190.459 25.3509 190.747 24.9429 190.747 24.4389C190.747 23.9349 190.435 23.4789 189.811 23.0709C189.187 22.6629 188.527 22.4589 187.831 22.4589Z" fill="white"/>
<path d="M46 38.5509H195.535V40.3509H46V38.5509Z" fill="white"/>
<circle cx="21" cy="28.0786" r="18" stroke="white" stroke-width="2"/>
<path d="M36 17.0786L32.7898 19.555C32.4398 19.825 32.0102 19.9715 31.5682 19.9715H24.1266C23.361 19.9715 22.6625 20.4085 22.3278 21.0971L21.6812 22.4273C21.2807 23.2512 21.4912 24.242 22.1922 24.8319L28.8673 30.4494C30.3958 31.7357 31.1838 33.6984 30.9693 35.6845L30.4637 40.3645C30.4047 40.9105 30.2897 41.4491 30.1203 41.9716L29.4375 44.0786" stroke="white" stroke-width="2"/>
<path d="M4 23.9953L12.5724 22.5455C13.9256 22.3167 15.1019 23.4875 14.8795 24.8417L13.9192 30.6884C13.6365 32.4092 14.5013 34.1148 16.0565 34.9038L18.8742 36.3334C20.1189 36.9649 20.7636 38.3713 20.4298 39.7265L19.1111 45.0786" stroke="white" stroke-width="2"/>
</svg>
