<svg width="1920" height="1080" viewBox="0 0 1920 1080" fill="none" xmlns="http://www.w3.org/2000/svg">
<g filter="url(#filter0_d_18_342)">
<rect width="1920" height="1080" fill="black"/>
<g filter="url(#filter1_d_18_342)">
<path opacity="0.97" fill-rule="evenodd" clip-rule="evenodd" d="M1154.12 443.064C1146.7 447.946 1143.7 455.193 1147.38 459.737C1151.31 464.585 1161.41 464.58 1169.93 459.727C1178.45 454.874 1182.18 447 1178.25 442.152C1174.32 437.305 1164.22 437.309 1155.7 442.163C1155.17 442.466 1154.61 442.738 1154.12 443.064Z" fill="white"/>
<path d="M1163.09 364.959L1171.44 405.44L1179.79 445.922L1175.74 446.54L1159.57 365.467L1163.09 364.959Z" fill="white"/>
<path fill-rule="evenodd" clip-rule="evenodd" d="M1577.23 847.349V855.556C1578.05 856.293 1579.96 857.257 1582.98 858.449C1590.45 860.463 1594.19 862.458 1594.19 864.443C1594.19 866.826 1593.19 868.707 1591.19 870.097L1592.66 871.458H1592.85C1596.85 868.735 1598.86 865.313 1598.86 861.172C1598.86 857.257 1594.93 854.308 1587.06 852.322C1581.39 850.535 1578.12 848.881 1577.23 847.349Z" fill="white"/>
<path d="M1572.56 779.288L1572.16 779.868V880.712V880.748L1572.47 881.617L1577.01 881.038L1577.23 880.712V836.556V798.776V783.055V779.868L1576.84 779.288H1572.56Z" fill="white"/>
<path fill-rule="evenodd" clip-rule="evenodd" d="M1577.23 830.904V839.111C1578.05 839.848 1579.96 840.813 1582.98 842.004C1590.45 844.018 1594.19 846.013 1594.19 847.998C1594.19 850.381 1593.19 852.262 1591.19 853.652L1592.66 855.014H1592.85C1596.85 852.291 1598.86 848.868 1598.86 844.727C1598.86 840.813 1594.93 837.863 1587.06 835.877C1581.39 834.09 1578.12 832.436 1577.23 830.904Z" fill="white"/>
<path d="M1561.94 876.76C1554.99 877.412 1551.52 879.605 1551.52 883.321C1551.52 888.086 1555.49 890.469 1563.42 890.469H1566.22C1573.56 889.192 1577.23 886.375 1577.23 882.035V879.482H1572.16C1569.25 877.667 1566.22 876.76 1563.08 876.76H1561.94Z" fill="white"/>
<path fill-rule="evenodd" clip-rule="evenodd" d="M1577.23 814.759V822.966C1578.05 823.703 1579.96 824.668 1582.98 825.859C1590.45 827.873 1594.19 829.868 1594.19 831.853C1594.19 834.236 1593.19 836.117 1591.19 837.507L1592.66 838.869H1592.85C1596.85 836.146 1598.86 832.723 1598.86 828.582C1598.86 824.668 1594.93 821.718 1587.06 819.732C1581.4 817.945 1578.12 816.291 1577.23 814.759Z" fill="white"/>
<path fill-rule="evenodd" clip-rule="evenodd" d="M1577.23 798.979V807.185C1578.05 807.923 1579.96 808.887 1582.98 810.078C1590.45 812.092 1594.19 814.087 1594.19 816.073C1594.19 818.455 1593.19 820.337 1591.19 821.727L1592.66 823.088H1592.85C1596.85 820.365 1598.86 816.943 1598.86 812.801C1598.86 808.887 1594.93 805.937 1587.06 803.952C1581.4 802.165 1578.12 800.51 1577.23 798.979Z" fill="white"/>
<path fill-rule="evenodd" clip-rule="evenodd" d="M1577.23 782.643V790.849C1578.05 791.587 1579.96 792.551 1582.98 793.743C1590.45 795.756 1594.19 797.751 1594.19 799.737C1594.19 802.119 1593.19 804.001 1591.19 805.391L1592.66 806.752H1592.85C1596.85 804.029 1598.86 800.607 1598.86 796.465C1598.86 792.551 1594.93 789.601 1587.06 787.616C1581.39 785.829 1578.12 784.174 1577.23 782.643Z" fill="white"/>
<g clip-path="url(#clip0_18_342)">
<path opacity="0.97" fill-rule="evenodd" clip-rule="evenodd" d="M1628.71 618.175C1621.09 621.719 1617.03 628.135 1619.53 632.962C1622.19 638.111 1631.34 639.564 1639.96 636.205C1648.58 632.847 1653.41 625.943 1650.74 620.795C1648.08 615.646 1638.92 614.193 1630.31 617.551C1629.77 617.761 1629.22 617.939 1628.71 618.175Z" fill="white"/>
<path d="M1651.25 541.971L1651.34 583.275L1651.43 624.579H1647.65L1647.97 541.942L1651.25 541.971Z" fill="white"/>
<path opacity="0.97" d="M1651.2 541.971C1651.51 542.725 1651.75 543.496 1651.93 544.278C1652.38 546.263 1652.42 548.329 1653.24 550.229C1654.44 552.966 1657.12 555.036 1659.68 557.029C1664.8 561.021 1669.88 565.288 1672.7 570.629C1676.17 577.215 1675.84 584.852 1673.43 591.758C1672.51 594.387 1671.31 596.94 1670.14 599.5C1670.04 599.716 1669.94 599.933 1669.8 600.134C1669.67 600.336 1669.49 600.522 1669.26 600.653C1669.1 600.742 1668.92 600.804 1668.74 600.819C1668.55 600.835 1668.35 600.801 1668.2 600.714C1668.08 600.65 1667.99 600.56 1667.93 600.46C1667.86 600.359 1667.82 600.249 1667.8 600.137C1667.73 599.848 1667.76 599.55 1667.8 599.257C1667.91 598.358 1668.12 597.469 1668.35 596.585C1668.95 594.243 1669.77 591.938 1670.31 589.585C1671.23 585.64 1671.38 581.502 1670 577.649C1668.76 574.161 1666.27 570.987 1662.92 568.634C1659.58 566.282 1655.4 564.761 1651.05 564.315" fill="white"/>
</g>
<path opacity="0.97" fill-rule="evenodd" clip-rule="evenodd" d="M1395.07 854.345C1388.82 859.619 1386.9 866.986 1390.81 871.285C1394.99 875.87 1404.28 875.281 1411.56 869.972C1418.84 864.662 1421.35 856.632 1417.17 852.047C1413 847.462 1403.7 848.05 1396.42 853.36C1395.97 853.692 1395.49 853.994 1395.07 854.345Z" fill="white"/>
<path d="M1393.11 772.601L1406.06 814.151L1419.02 855.7L1415.37 856.547L1389.92 773.307L1393.11 772.601Z" fill="white"/>
<path opacity="0.97" d="M1393.06 772.612C1393.57 773.18 1394.03 773.778 1394.42 774.401C1395.4 775.982 1395.98 777.732 1397.33 779.151C1399.27 781.197 1402.56 782.321 1405.7 783.411C1411.98 785.594 1418.3 788.02 1422.59 791.895C1427.88 796.674 1429.54 803.25 1428.9 809.697C1428.65 812.152 1428.09 814.609 1427.57 817.063C1427.53 817.271 1427.49 817.479 1427.4 817.683C1427.31 817.886 1427.18 818.087 1426.98 818.253C1426.84 818.365 1426.68 818.46 1426.49 818.518C1426.3 818.575 1426.09 818.593 1425.91 818.556C1425.78 818.529 1425.66 818.473 1425.57 818.403C1425.48 818.334 1425.41 818.249 1425.35 818.16C1425.2 817.93 1425.16 817.67 1425.12 817.411C1425 816.619 1424.97 815.815 1424.97 815.009C1424.98 812.871 1425.2 810.718 1425.14 808.586C1425.04 805.013 1424.1 801.458 1421.68 798.506C1419.49 795.833 1416.11 793.724 1412.07 792.515C1408.03 791.307 1403.36 791.004 1398.8 791.655" fill="white"/>
<path opacity="0.97" d="M1393.15 783.736C1393.68 784.377 1394.14 785.049 1394.55 785.746C1395.57 787.515 1396.21 789.455 1397.58 791.058C1399.55 793.369 1402.79 794.709 1405.88 796.006C1412.08 798.606 1418.31 801.474 1422.64 805.869C1427.98 811.289 1429.89 818.569 1429.53 825.633C1429.4 828.322 1428.96 831.004 1428.56 833.684C1428.53 833.911 1428.49 834.138 1428.42 834.359C1428.34 834.58 1428.22 834.797 1428.03 834.973C1427.91 835.091 1427.75 835.191 1427.57 835.248C1427.39 835.305 1427.19 835.318 1427.01 835.271C1426.88 835.237 1426.77 835.173 1426.67 835.093C1426.58 835.013 1426.51 834.919 1426.45 834.819C1426.3 834.562 1426.24 834.274 1426.19 833.989C1426.04 833.114 1425.98 832.229 1425.95 831.344C1425.86 828.995 1425.99 826.636 1425.84 824.292C1425.59 820.362 1424.52 816.425 1422.05 813.105C1419.81 810.098 1416.43 807.671 1412.46 806.215C1408.49 804.758 1403.94 804.275 1399.54 804.845" fill="white"/>
<g clip-path="url(#clip1_18_342)">
<path d="M668.126 888.113C673.794 875.335 680.116 857.157 670.261 846.992C667.942 844.6 665.047 842.627 661.885 841.187C661.27 856.748 654.309 873.862 666.193 886.12L668.126 888.113ZM654.856 819.968C659.107 824.353 661.051 829.395 661.687 834.707C666.815 836.757 671.427 839.692 675.098 843.479C692.587 861.517 670.444 890.505 687.933 908.543L686.09 909.882L637.78 860.052L639.622 858.713L646.386 865.69C652.939 852.609 660.26 834.045 650.018 823.481C647.989 821.388 645.269 819.797 642.415 818.473C640.524 817.13 640.958 814.946 642.456 813.859C645.911 811.349 652.344 817.377 654.856 819.968Z" fill="white"/>
<path d="M607.741 827.853L606.301 828.898C605.665 829.36 605.582 830.181 606.115 830.731L684.19 911.262C684.723 911.812 685.671 911.884 686.308 911.422L687.747 910.376C688.383 909.914 688.466 909.094 687.933 908.543L609.858 828.013C609.325 827.463 608.377 827.391 607.741 827.853Z" fill="white"/>
<path d="M677.384 769.302C674.388 766.212 674.852 761.63 678.423 759.037C681.993 756.444 687.288 756.844 690.283 759.934C693.279 763.023 692.815 767.606 689.244 770.199C685.674 772.792 680.379 772.391 677.384 769.302Z" fill="white"/>
<path d="M651.469 788.122C648.474 785.033 648.938 780.45 652.508 777.857C656.079 775.264 661.373 775.664 664.369 778.754C667.364 781.843 666.9 786.426 663.33 789.019C659.759 791.612 654.464 791.212 651.469 788.122Z" fill="white"/>
<path d="M612.618 792.901C619.068 788.217 627.974 786.674 633.965 792.852C640.921 800.028 639.206 809.595 636.498 816.317C634.381 821.421 631.223 826.262 626.501 829.692C620.051 834.376 611.144 835.919 605.154 829.74C598.197 822.564 599.913 812.997 602.621 806.275C604.738 801.171 607.896 796.33 612.618 792.901Z" fill="white"/>
</g>
<path fill-rule="evenodd" clip-rule="evenodd" d="M1232.67 791.446C1229.38 791.988 1226.85 793.974 1225.71 796.717C1225.47 797.602 1225.47 797.818 1225.47 799.029C1225.47 800.694 1225.59 801.579 1226.48 802.895C1227.74 805.102 1230.39 806.872 1233.41 807.519C1236.58 808.299 1241.87 807.63 1247.93 805.876L1249.44 805.423L1240.58 824.624L1237.98 839.31C1237.98 839.31 1217.92 883.955 1218.32 884.193C1218.84 884.494 1229.79 861.57 1233.62 851.643C1235.73 846.181 1237.94 842.459 1238.21 842.459C1239.72 842.459 1238.32 842.109 1238.57 841.44C1238.57 841.225 1238 846.465 1242.28 834.02L1257.26 795.074L1257.01 794.753C1256.4 794.084 1255.13 793.869 1254.36 794.405C1254.12 794.621 1253.72 795.074 1253.48 795.401C1252.34 797.065 1249.44 800.025 1247.93 801.125C1246.55 802.121 1245.78 802.226 1244.52 801.794C1243.38 801.252 1243.01 800.694 1242.24 797.713C1241.5 794.753 1240.61 793.409 1238.71 792.309C1236.94 791.319 1234.67 790.992 1232.67 791.446Z" fill="white"/>
<path fill-rule="evenodd" clip-rule="evenodd" d="M1224.24 812.535C1220.94 813.077 1218.42 815.063 1217.28 817.806C1217.04 818.691 1217.04 818.907 1217.04 820.118C1217.04 821.783 1217.16 822.668 1218.05 823.984C1219.31 826.191 1221.96 827.961 1224.98 828.608C1228.14 829.388 1233.44 828.719 1239.5 826.965L1241.01 826.512L1233.56 844.488L1228.6 861.216C1228.6 861.216 1224.82 871.503 1225.22 871.741C1225.96 872.172 1228.89 863.548 1229.78 863.548C1231.29 863.548 1223.76 886.245 1224.01 885.576C1224.01 885.361 1236.97 851.424 1241.26 838.979L1248.82 816.163L1248.58 815.843C1247.96 815.173 1246.7 814.958 1245.93 815.494C1245.68 815.71 1245.29 816.163 1245.04 816.49C1243.9 818.155 1241.01 821.114 1239.5 822.214C1238.11 823.21 1237.35 823.315 1236.09 822.884C1234.95 822.342 1234.57 821.783 1233.81 818.802C1233.07 815.843 1232.18 814.499 1230.27 813.398C1228.51 812.408 1226.24 812.081 1224.24 812.535Z" fill="white"/>
<path fill-rule="evenodd" clip-rule="evenodd" d="M1216.51 833.625C1213.38 834.167 1210.98 836.153 1209.89 838.896C1209.66 839.781 1209.66 839.997 1209.66 841.208C1209.66 842.873 1209.77 843.758 1210.62 845.074C1211.82 847.281 1214.34 849.051 1217.22 849.698C1220.23 850.478 1225.27 849.809 1231.04 848.055L1232.48 847.602C1233.65 846.693 1232.65 848.426 1232.67 848.545L1213.82 893.254C1213.82 893.254 1215.59 892.481 1215.97 892.718C1216.68 893.15 1216.59 891.419 1216.68 892.15C1218.12 903.049 1222.1 894.31 1222.33 893.617C1222.33 893.401 1235.38 850.042 1239.45 837.597L1239.92 837.253L1239.68 836.932C1239.1 836.263 1237.9 836.047 1237.16 836.584C1236.93 836.8 1236.55 837.253 1236.32 837.58C1235.23 839.244 1232.48 842.203 1231.04 843.304C1229.72 844.3 1228.99 844.405 1227.79 843.973C1226.71 843.431 1226.35 842.873 1225.62 839.891C1224.92 836.932 1224.07 835.588 1222.26 834.488C1220.58 833.498 1218.42 833.171 1216.51 833.625Z" fill="white"/>
<path d="M1226.27 887.066H1211.47V901.65H1226.27V887.066Z" fill="white"/>
<path fill-rule="evenodd" clip-rule="evenodd" d="M339.922 506.113C338.073 506.417 336.657 507.532 336.017 509.073C335.878 509.57 335.878 509.691 335.878 510.371C335.878 511.306 335.945 511.803 336.447 512.542C337.155 513.782 338.642 514.776 340.338 515.139C342.117 515.577 345.09 515.201 348.494 514.216L349.34 513.962L344.362 524.745L342.902 532.992C342.902 532.992 331.641 558.063 331.865 558.197C332.156 558.366 338.303 545.492 340.456 539.918C341.641 536.85 342.883 534.76 343.034 534.76C343.881 534.76 343.096 534.564 343.234 534.188C343.234 534.067 342.917 537.01 345.322 530.021L353.73 508.15L353.591 507.97C353.246 507.594 352.538 507.473 352.104 507.775C351.965 507.896 351.745 508.15 351.606 508.334C350.966 509.268 349.341 510.93 348.494 511.548C347.715 512.107 347.285 512.166 346.577 511.924C345.937 511.62 345.727 511.306 345.297 509.632C344.88 507.97 344.382 507.215 343.312 506.597C342.323 506.041 341.046 505.858 339.922 506.113Z" fill="white"/>
<path fill-rule="evenodd" clip-rule="evenodd" d="M335.187 517.956C333.337 518.26 331.921 519.375 331.281 520.916C331.142 521.413 331.142 521.534 331.142 522.214C331.142 523.149 331.21 523.646 331.711 524.385C332.419 525.625 333.906 526.619 335.603 526.982C337.381 527.42 340.355 527.044 343.758 526.059L344.605 525.805L340.422 535.899L337.636 545.293C337.636 545.293 335.516 551.071 335.74 551.204C336.156 551.446 337.797 546.603 338.299 546.603C339.145 546.603 334.919 559.349 335.058 558.973C335.058 558.852 342.339 539.794 344.744 532.806L348.994 519.993L348.855 519.813C348.51 519.437 347.803 519.316 347.369 519.618C347.23 519.739 347.01 519.993 346.871 520.177C346.231 521.112 344.605 522.773 343.759 523.391C342.98 523.95 342.549 524.009 341.841 523.767C341.201 523.463 340.991 523.149 340.561 521.475C340.145 519.813 339.647 519.058 338.576 518.44C337.587 517.884 336.311 517.701 335.187 517.956Z" fill="white"/>
<path fill-rule="evenodd" clip-rule="evenodd" d="M330.849 529.799C329.089 530.104 327.741 531.219 327.132 532.759C327 533.256 327 533.377 327 534.058C327 534.992 327.064 535.489 327.542 536.229C328.215 537.468 329.631 538.462 331.245 538.825C332.938 539.263 335.768 538.887 339.008 537.903L339.814 537.648C340.473 537.138 339.911 538.111 339.925 538.178L329.339 563.285C329.339 563.285 330.331 562.851 330.544 562.984C330.94 563.227 330.89 562.255 330.944 562.665C331.75 568.786 333.985 563.878 334.117 563.489C334.117 563.368 341.443 539.018 343.731 532.03L343.992 531.837L343.86 531.657C343.531 531.281 342.858 531.16 342.445 531.461C342.313 531.582 342.103 531.837 341.971 532.02C341.362 532.955 339.814 534.617 339.009 535.235C338.267 535.794 337.858 535.853 337.184 535.611C336.574 535.306 336.375 534.992 335.965 533.318C335.569 531.657 335.095 530.902 334.076 530.284C333.135 529.728 331.919 529.544 330.849 529.799Z" fill="white"/>
<path d="M336.33 559.81H328.015V568H336.33V559.81Z" fill="white"/>
<g clip-path="url(#clip2_18_342)">
<path opacity="0.9" fill-rule="evenodd" clip-rule="evenodd" d="M1453.96 304.791C1456.99 302.333 1457.95 298.932 1456.1 296.969C1454.13 294.876 1449.68 295.189 1446.17 297.667C1442.66 300.145 1441.41 303.855 1443.38 305.948C1445.35 308.041 1449.8 307.729 1453.31 305.251C1453.53 305.096 1453.76 304.954 1453.96 304.791Z" fill="white"/>
<path d="M1455.98 298.214L1446.62 267.982" stroke="white" stroke-width="1.5"/>
<path opacity="0.9" fill-rule="evenodd" clip-rule="evenodd" d="M1406.63 316.108C1409.66 313.651 1410.62 310.25 1408.77 308.287C1406.8 306.194 1402.35 306.506 1398.84 308.985C1395.32 311.463 1394.07 315.173 1396.05 317.266C1398.02 319.359 1402.47 319.046 1405.98 316.568C1406.2 316.414 1406.43 316.272 1406.63 316.108Z" fill="white"/>
<path d="M1408.64 309.532L1399.29 279.3" stroke="white" stroke-width="1.5"/>
<path opacity="0.9" d="M1399.28 282.085L1448.38 270.699L1447.17 266.787L1398.07 278.173L1399.28 282.085Z" fill="white"/>
</g>
<g clip-path="url(#clip3_18_342)">
<path opacity="0.9" fill-rule="evenodd" clip-rule="evenodd" d="M1050.28 262.953C1046.62 264.649 1044.67 267.719 1045.87 270.029C1047.15 272.492 1051.54 273.187 1055.67 271.58C1059.81 269.974 1062.13 266.67 1060.85 264.207C1059.57 261.743 1055.18 261.048 1051.04 262.655C1050.78 262.755 1050.52 262.84 1050.28 262.953Z" fill="white"/>
<path d="M1046.36 268.855V300.153" stroke="white" stroke-width="1.5"/>
<path opacity="0.9" fill-rule="evenodd" clip-rule="evenodd" d="M1099.38 262.624C1095.72 264.32 1093.77 267.39 1094.97 269.699C1096.25 272.162 1100.64 272.858 1104.78 271.251C1108.91 269.644 1111.23 266.341 1109.95 263.877C1108.67 261.414 1104.28 260.719 1100.15 262.325C1099.89 262.426 1099.62 262.511 1099.38 262.624Z" fill="white"/>
<path d="M1095.47 268.525V299.823" stroke="white" stroke-width="1.5"/>
<path opacity="0.9" d="M1096.31 297.134H1045.48V301.184H1096.31V297.134Z" fill="white"/>
</g>
<g clip-path="url(#clip4_18_342)">
<path d="M1495.15 429.097C1489.12 424.344 1492.45 416.797 1502.36 412.324C1505.7 410.926 1508.17 410.274 1512.48 410.367C1515.17 410.46 1518.19 411.765 1518.19 411.765C1518.19 394.898 1518.08 363.03 1518.08 347.375C1519.15 347.375 1519.91 347.282 1521.42 347.282C1521.42 348.214 1521.42 348.959 1521.42 349.705C1521.42 350.543 1521.42 351.009 1521.52 351.568C1522.6 357.439 1524.11 359.768 1531.64 366.944C1541.23 376.169 1544.03 381.666 1544.03 389.028C1543.92 395.924 1536.92 410.646 1535.41 410.087C1537.57 404.869 1540.58 399.278 1541.33 394.619C1542.3 388.935 1539.61 380.921 1535.3 376.728C1531.86 373.187 1523.68 370.112 1521.42 370.112C1521.42 370.112 1521.31 404.03 1521.31 416.89C1521.31 419.033 1519.05 422.853 1517.75 424.158C1511.83 430.308 1500.31 433.104 1495.15 429.097Z" fill="white"/>
</g>
<g clip-path="url(#clip5_18_342)">
<path opacity="0.97" fill-rule="evenodd" clip-rule="evenodd" d="M1787.74 747.047C1784.65 748.486 1783 751.089 1784.01 753.048C1785.09 755.138 1788.81 755.727 1792.3 754.364C1795.8 753.002 1797.75 750.2 1796.67 748.111C1795.59 746.021 1791.88 745.432 1788.39 746.794C1788.17 746.88 1787.94 746.952 1787.74 747.047Z" fill="white"/>
<path d="M1796.88 716.124L1796.92 732.885L1796.95 749.646H1795.42L1795.55 716.111L1796.88 716.124Z" fill="white"/>
<path opacity="0.97" d="M1796.86 716.123C1796.98 716.429 1797.08 716.742 1797.16 717.06C1797.34 717.865 1797.35 718.703 1797.69 719.474C1798.17 720.585 1799.26 721.425 1800.3 722.234C1802.38 723.854 1804.44 725.586 1805.58 727.753C1806.99 730.425 1806.85 733.525 1805.88 736.327C1805.5 737.394 1805.02 738.43 1804.54 739.469C1804.5 739.557 1804.46 739.645 1804.41 739.726C1804.35 739.808 1804.28 739.884 1804.19 739.937C1804.12 739.973 1804.05 739.998 1803.97 740.004C1803.9 740.011 1803.82 739.997 1803.76 739.962C1803.71 739.936 1803.67 739.899 1803.65 739.858C1803.62 739.818 1803.6 739.773 1803.59 739.728C1803.56 739.61 1803.58 739.489 1803.59 739.37C1803.64 739.006 1803.72 738.645 1803.81 738.286C1804.06 737.336 1804.39 736.4 1804.61 735.445C1804.98 733.844 1805.04 732.165 1804.49 730.602C1803.98 729.186 1802.97 727.898 1801.62 726.944C1800.26 725.989 1798.56 725.372 1796.8 725.191" fill="white"/>
</g>
<path opacity="0.97" fill-rule="evenodd" clip-rule="evenodd" d="M173.666 879.939C165.201 881.8 159.28 887.348 160.189 892.765C161.158 898.543 169.547 902.056 178.916 900.606C188.284 899.157 195.1 893.29 194.131 887.512C193.162 881.733 184.773 878.22 175.404 879.67C174.819 879.761 174.23 879.815 173.666 879.939Z" fill="white"/>
<path d="M219.186 808.296L206.403 849.885L193.621 891.475L189.967 890.628L216.02 807.529L219.186 808.296Z" fill="white"/>
<path opacity="0.97" d="M219.131 808.283C219.194 809.11 219.19 809.942 219.118 810.769C218.938 812.868 218.328 814.955 218.536 817.052C218.836 820.074 220.785 822.759 222.633 825.337C226.334 830.503 229.908 835.934 230.968 841.941C232.276 849.348 229.573 856.96 225.091 863.37C223.385 865.81 221.427 868.11 219.5 870.424C219.338 870.62 219.174 870.816 218.979 870.988C218.785 871.16 218.556 871.308 218.293 871.389C218.116 871.443 217.923 871.465 217.738 871.439C217.552 871.412 217.374 871.335 217.25 871.212C217.16 871.123 217.101 871.011 217.069 870.896C217.037 870.78 217.032 870.66 217.041 870.542C217.066 870.235 217.187 869.942 217.316 869.656C217.71 868.778 218.181 867.927 218.678 867.09C219.996 864.868 221.499 862.731 222.761 860.485C224.876 856.72 226.307 852.589 226.18 848.403C226.065 844.614 224.646 840.86 222.15 837.744C219.653 834.628 216.089 832.161 212.028 830.737" fill="white"/>
<path d="M1783.23 598.153C1782.67 600.78 1780.28 602.629 1778.23 604.336C1773.7 607.689 1768.3 610.228 1762.57 611.016C1760.89 611.149 1758.18 611.19 1757.92 609.142C1757.68 606.979 1759.6 605.252 1761.06 603.785C1764.81 600.423 1769.52 598.065 1774.39 596.498C1776.91 595.846 1779.86 595.003 1782.3 596.238C1782.95 596.659 1783.36 597.396 1783.23 598.153ZM1776.84 592.103C1770.5 591.633 1764.15 594.399 1759.77 598.644C1756.84 601.559 1754.63 605.95 1756.35 609.871C1757.63 613.014 1761.31 614.518 1764.72 614.62C1770.58 614.979 1776.32 612.418 1780.61 608.77C1783.8 605.955 1786.38 601.717 1785.14 597.554C1784.25 594.524 1781.13 592.552 1777.88 592.219C1777.53 592.171 1777.19 592.131 1776.84 592.103Z" fill="white" stroke="white" stroke-width="2.13544"/>
<path d="M1785.81 516.811L1785.9 556.59L1786 599.512L1782.21 596.369L1782.52 516.782L1785.81 516.811Z" fill="white"/>
<path d="M1805.45 598.979C1806.4 600.117 1806.79 601.536 1806.53 602.924C1806.28 604.312 1805.39 605.555 1804.08 606.38C1802.76 607.205 1801.12 607.543 1799.52 607.322C1797.91 607.1 1796.47 606.336 1795.52 605.198C1794.57 604.06 1794.18 602.641 1794.43 601.253C1794.69 599.865 1795.57 598.621 1796.88 597.796C1798.2 596.971 1799.84 596.631 1801.44 596.852C1803.05 597.073 1804.49 597.836 1805.44 598.973" fill="white"/>
<path d="M925.807 392.949C929.676 394.355 930.408 396.408 931.242 398.219C932.365 402.05 931.259 405.995 926.865 409.382C925.405 410.337 922.774 411.795 919.055 411.074C915.169 410.289 914.176 408.538 913.165 407.139C911.245 403.721 911.966 400.22 914.195 396.96C915.612 395.342 917.13 393.418 921.648 392.638C923.014 392.465 924.662 392.559 925.807 392.949ZM909.226 393.804C902.109 396.982 900.433 401.532 903.213 405.657C905.195 408.452 910.391 411.48 918.719 412.216C925.294 412.861 931.504 411.533 935.081 409.759C941.538 406.787 942.952 402.648 941.089 398.822C939.528 395.935 934.959 392.773 926.706 391.677C920.707 390.875 914.27 391.706 910.467 393.296C910.039 393.461 909.623 393.63 909.226 393.804Z" fill="white" stroke="white" stroke-width="2.51368"/>
<g clip-path="url(#clip6_18_342)">
<path d="M1570.67 242.703C1574.14 241.607 1578.02 241.967 1579.28 244.951C1580.74 248.418 1578.25 251.872 1575.9 254.14C1574.09 255.855 1571.91 257.36 1569.36 258.162C1565.88 259.257 1562 258.898 1560.75 255.913C1559.29 252.447 1561.78 248.992 1564.13 246.725C1565.94 245.01 1568.12 243.505 1570.67 242.703Z" fill="white"/>
<path d="M1630.76 263.872L1572.51 282.22L1570.49 277.406L1628.73 259.058L1630.76 263.872Z" fill="white" stroke="white" stroke-width="0.498132" stroke-linecap="round" stroke-linejoin="round"/>
<path d="M1635.18 274.383L1576.93 292.731L1574.91 287.917L1633.15 269.569L1635.18 274.383Z" fill="white" stroke="white" stroke-width="0.498132" stroke-linecap="round" stroke-linejoin="round"/>
<path d="M1639.6 284.894L1581.35 303.242L1579.33 298.428L1637.57 280.08L1639.6 284.894Z" fill="white" stroke="white" stroke-width="0.498132" stroke-linecap="round" stroke-linejoin="round"/>
<path d="M1644.02 295.406L1585.78 313.754L1583.75 308.94L1642 290.592L1644.02 295.406Z" fill="white" stroke="white" stroke-width="0.498132" stroke-linecap="round" stroke-linejoin="round"/>
<path d="M1562.14 255.471L1561.37 255.715C1561.03 255.823 1560.84 256.127 1560.95 256.392L1583.94 311.061C1584.05 311.327 1584.42 311.455 1584.76 311.347L1585.54 311.102C1585.88 310.994 1586.07 310.691 1585.96 310.425L1562.97 255.757C1562.86 255.491 1562.49 255.363 1562.14 255.471Z" fill="white"/>
<path d="M1599.4 233.651C1602.88 232.555 1606.76 232.914 1608.01 235.899C1609.47 239.366 1606.98 242.82 1604.63 245.088C1602.82 246.803 1600.64 248.308 1598.1 249.11C1594.62 250.205 1590.74 249.846 1589.48 246.861C1588.03 243.395 1590.51 239.94 1592.86 237.673C1594.67 235.958 1596.86 234.453 1599.4 233.651Z" fill="white"/>
<path d="M1590.88 246.419L1590.1 246.663C1589.76 246.771 1589.57 247.074 1589.69 247.34L1612.68 302.009C1612.79 302.275 1613.16 302.403 1613.5 302.295L1614.28 302.05C1614.62 301.942 1614.81 301.639 1614.69 301.373L1591.7 246.704C1591.59 246.438 1591.22 246.311 1590.88 246.419Z" fill="white"/>
<path d="M1628.14 224.599C1631.61 223.504 1635.49 223.863 1636.75 226.848C1638.2 230.314 1635.72 233.769 1633.37 236.036C1631.56 237.751 1629.38 239.256 1626.83 240.058C1623.35 241.154 1619.47 240.794 1618.22 237.81C1616.76 234.343 1619.25 230.889 1621.6 228.621C1623.41 226.906 1625.59 225.401 1628.14 224.599Z" fill="white"/>
<path d="M1619.61 237.367L1618.84 237.611C1618.49 237.72 1618.31 238.023 1618.42 238.289L1641.41 292.957C1641.52 293.223 1641.89 293.351 1642.23 293.243L1643.01 292.998C1643.35 292.89 1643.54 292.587 1643.43 292.321L1620.44 237.653C1620.33 237.387 1619.96 237.259 1619.61 237.367Z" fill="white"/>
</g>
<g clip-path="url(#clip7_18_342)">
<path d="M1420.42 566.479C1434.38 566.686 1453.72 565.729 1460.5 555.572C1462.09 553.182 1463.11 550.505 1463.54 547.797C1448.43 552.063 1429.92 552.239 1421.75 564.488L1420.42 566.479ZM1481.77 536.326C1478.84 540.708 1474.6 543.63 1469.69 545.694C1469.27 549.999 1467.85 554.201 1465.33 557.985C1453.3 576.008 1418.82 568.869 1406.8 586.893L1404.96 585.974L1438.17 536.184L1440.01 537.103L1435.36 544.074C1449.88 544.825 1469.9 544.469 1476.94 533.913C1478.33 531.822 1479.04 529.386 1479.45 526.935C1480.17 525.169 1482.39 524.821 1483.89 525.568C1487.33 527.291 1483.49 533.737 1481.77 536.326Z" fill="white"/>
<path d="M1459.99 504.858L1458.55 504.14C1457.92 503.822 1457.11 504.011 1456.74 504.561L1403.06 585.026C1402.7 585.576 1402.91 586.279 1403.55 586.596L1404.99 587.314C1405.62 587.632 1406.43 587.443 1406.8 586.893L1460.48 506.428C1460.84 505.878 1460.63 505.175 1459.99 504.858Z" fill="white"/>
<path d="M1537.16 537.183C1539.22 534.096 1543.75 533.043 1547.31 534.824C1550.88 536.605 1552.09 540.531 1550.03 543.618C1547.97 546.705 1543.44 547.758 1539.87 545.977C1536.31 544.196 1535.1 540.27 1537.16 537.183Z" fill="white"/>
<path d="M1511.29 524.257C1513.35 521.17 1517.88 520.117 1521.45 521.898C1525.01 523.679 1526.22 527.604 1524.16 530.691C1522.1 533.778 1517.57 534.832 1514.01 533.051C1510.44 531.27 1509.23 527.344 1511.29 524.257Z" fill="white"/>
<path d="M1494.98 497.787C1501.42 501.004 1505.59 506.937 1501.47 513.111C1496.69 520.28 1486.99 521.943 1479.73 522.031C1474.2 522.054 1468.6 521.249 1463.89 518.894C1457.45 515.677 1453.28 509.744 1457.4 503.57C1462.18 496.4 1471.88 494.738 1479.14 494.65C1484.67 494.627 1490.27 495.431 1494.98 497.787Z" fill="white"/>
</g>
<path opacity="0.97" fill-rule="evenodd" clip-rule="evenodd" d="M288.518 432.63C282.815 439.007 282.079 446.68 286.995 450.245C292.239 454.047 301.998 451.78 308.777 445.183C315.557 438.586 316.803 430.146 311.559 426.343C306.315 422.541 296.556 424.808 289.777 431.405C289.353 431.818 288.899 432.205 288.518 432.63Z" fill="white"/>
<path d="M273.831 355.176L293.999 392.408L314.167 429.641L310.44 431.145L270.578 356.456L273.831 355.176Z" fill="white"/>
<g clip-path="url(#clip8_18_342)">
<path fill-rule="evenodd" clip-rule="evenodd" d="M481.929 845.479L484.383 853.406C485.395 853.935 487.53 854.438 490.799 854.913C498.618 855.185 502.824 856.275 503.417 858.193C504.13 860.494 503.732 862.534 502.217 864.324L504.038 865.312L504.228 865.268C507.276 861.742 508.194 857.986 506.955 853.985C505.785 850.205 501.104 848.236 492.913 848.08C486.902 847.624 483.242 846.76 481.929 845.479Z" fill="white"/>
<path d="M457.06 780.785L456.854 781.433L487.01 878.84L487.021 878.875L487.576 879.646L491.793 878.068L491.906 877.705L478.702 835.054L467.404 798.561L462.703 783.376L461.75 780.297L461.196 779.825L457.06 780.785Z" fill="white"/>
<path fill-rule="evenodd" clip-rule="evenodd" d="M477.012 829.594L479.466 837.522C480.478 838.05 482.613 838.554 485.881 839.029C493.701 839.3 497.906 840.391 498.5 842.308C499.212 844.61 498.815 846.65 497.299 848.44L499.12 849.427L499.31 849.383C502.358 845.857 503.276 842.101 502.038 838.101C500.867 834.32 496.186 832.352 487.995 832.196C481.985 831.74 478.324 830.876 477.012 829.594Z" fill="white"/>
<path d="M475.952 877.313C469.436 879.5 466.736 882.397 467.847 885.986C469.272 890.589 473.826 891.999 481.486 890.223L484.188 889.596C490.897 886.719 493.6 883.175 492.302 878.983L491.539 876.518L486.642 877.653C483.282 876.553 480.088 876.354 477.049 877.059L475.952 877.313Z" fill="white"/>
<path fill-rule="evenodd" clip-rule="evenodd" d="M472.184 813.999L474.638 821.926C475.65 822.455 477.785 822.959 481.053 823.434C488.873 823.705 493.078 824.795 493.672 826.713C494.385 829.015 493.987 831.055 492.472 832.845L494.293 833.832L494.483 833.788C497.53 830.262 498.448 826.506 497.21 822.506C496.039 818.725 491.359 816.757 483.168 816.601C477.157 816.145 473.497 815.281 472.184 813.999Z" fill="white"/>
<path fill-rule="evenodd" clip-rule="evenodd" d="M467.465 798.757L469.919 806.684C470.931 807.213 473.066 807.716 476.334 808.191C484.154 808.463 488.359 809.553 488.953 811.471C489.666 813.772 489.268 815.812 487.753 817.602L489.574 818.589L489.764 818.545C492.811 815.02 493.729 811.263 492.491 807.263C491.32 803.483 486.64 801.514 478.449 801.358C472.438 800.902 468.778 800.038 467.465 798.757Z" fill="white"/>
<path fill-rule="evenodd" clip-rule="evenodd" d="M462.579 782.978L465.034 790.905C466.045 791.433 468.18 791.937 471.449 792.412C479.269 792.683 483.474 793.774 484.068 795.691C484.78 797.993 484.383 800.033 482.867 801.823L484.688 802.81L484.878 802.766C487.926 799.24 488.844 795.484 487.606 791.484C486.435 787.703 481.754 785.735 473.563 785.579C467.552 785.123 463.892 784.259 462.579 782.978Z" fill="white"/>
</g>
<g clip-path="url(#clip9_18_342)">
<path opacity="0.97" fill-rule="evenodd" clip-rule="evenodd" d="M1774.44 340.377C1768.14 345.507 1766.14 352.614 1770 356.717C1774.11 361.094 1783.38 360.446 1790.7 355.273C1798.02 350.099 1800.62 342.348 1796.51 337.972C1792.4 333.596 1783.12 334.243 1775.8 339.417C1775.34 339.74 1774.86 340.035 1774.44 340.377Z" fill="white"/>
<path d="M1773.43 261.72L1785.87 301.596L1798.31 341.472L1794.65 342.319L1770.25 262.427L1773.43 261.72Z" fill="white"/>
<path opacity="0.97" d="M1773.38 261.732C1773.9 262.391 1774.37 263.082 1774.77 263.797C1775.8 265.613 1776.46 267.6 1777.82 269.25C1779.79 271.627 1783.01 273.024 1786.07 274.377C1792.21 277.087 1798.39 280.071 1802.71 284.598C1808.04 290.18 1810 297.632 1809.74 304.843C1809.64 307.588 1809.24 310.324 1808.87 313.058C1808.84 313.289 1808.81 313.521 1808.74 313.746C1808.67 313.971 1808.55 314.191 1808.37 314.369C1808.25 314.489 1808.09 314.589 1807.92 314.646C1807.74 314.703 1807.54 314.714 1807.37 314.665C1807.24 314.629 1807.12 314.562 1807.03 314.48C1806.94 314.398 1806.86 314.3 1806.8 314.198C1806.65 313.934 1806.59 313.639 1806.54 313.348C1806.39 312.453 1806.31 311.549 1806.27 310.644C1806.16 308.245 1806.26 305.837 1806.08 303.441C1805.79 299.425 1804.69 295.395 1802.21 291.982C1799.97 288.891 1796.61 286.383 1792.68 284.86C1788.74 283.337 1784.25 282.805 1779.92 283.347" fill="white"/>
<g filter="url(#filter2_d_18_342)">
<path d="M1708.98 276.636L1652.82 289.66L1697.13 432.773L1753.28 419.749L1708.98 276.636Z" fill="white"/>
</g>
</g>
<path opacity="0.97" fill-rule="evenodd" clip-rule="evenodd" d="M1481.22 656.165C1487.44 651.424 1490.16 643.576 1487.34 638.091C1484.32 632.241 1476.09 631.224 1468.97 635.822C1461.85 640.42 1458.51 648.899 1461.53 654.75C1464.54 660.6 1472.77 661.617 1479.89 657.019C1480.34 656.731 1480.8 656.481 1481.22 656.165Z" fill="white"/>
<path d="M1471.43 747.436L1465.93 698.895L1460.42 650.354L1463.74 650.068L1474.32 747.223L1471.43 747.436Z" fill="white"/>
<path opacity="0.97" fill-rule="evenodd" clip-rule="evenodd" d="M485.866 448.918C481.401 455.414 481.747 462.96 486.815 466.235C492.221 469.728 501.024 467.077 506.463 460.319C511.903 453.56 511.93 445.24 506.524 441.747C501.118 438.255 492.316 440.905 486.876 447.663C486.536 448.086 486.164 448.485 485.866 448.918Z" fill="white"/>
<path d="M459.521 370.4L484.461 407.631L509.402 444.863L506.126 446.499L456.657 371.795L459.521 370.4Z" fill="white"/>
<path opacity="0.97" d="M459.48 370.421C460.146 370.854 460.762 371.331 461.324 371.846C462.75 373.152 463.832 374.712 465.558 375.781C468.045 377.323 471.559 377.671 474.916 378.021C481.639 378.722 488.463 379.651 493.765 382.433C500.304 385.864 503.883 391.842 505.186 398.215C505.683 400.641 505.879 403.139 506.109 405.626C506.129 405.837 506.148 406.048 506.126 406.264C506.103 406.48 506.036 406.703 505.892 406.908C505.795 407.047 505.662 407.176 505.498 407.274C505.335 407.371 505.139 407.435 504.951 407.44C504.814 407.444 504.686 407.416 504.575 407.37C504.464 407.323 504.37 407.258 504.289 407.184C504.08 406.995 503.955 406.754 503.841 406.513C503.492 405.774 503.223 405.003 502.984 404.224C502.351 402.158 501.923 400.028 501.227 397.983C500.06 394.554 498.089 391.33 494.87 389.021C491.954 386.93 488.054 385.651 483.793 385.388C479.533 385.125 474.927 385.879 470.714 387.53" fill="white"/>
<path opacity="0.97" d="M462.896 381.145C463.593 381.647 464.244 382.191 464.842 382.774C466.361 384.253 467.557 385.985 469.358 387.227C471.954 389.017 475.487 389.584 478.862 390.145C485.624 391.269 492.503 392.643 498 395.918C504.779 399.957 508.792 406.563 510.564 413.465C511.238 416.092 511.619 418.781 512.033 421.46C512.067 421.686 512.103 421.913 512.096 422.144C512.089 422.374 512.039 422.61 511.91 422.822C511.824 422.965 511.701 423.096 511.545 423.192C511.388 423.287 511.197 423.345 511.011 423.34C510.874 423.336 510.744 423.3 510.63 423.243C510.516 423.187 510.417 423.112 510.331 423.029C510.108 422.814 509.966 422.549 509.834 422.285C509.431 421.473 509.106 420.632 508.81 419.784C508.025 417.535 507.441 415.228 506.595 412.997C505.177 409.257 502.973 405.693 499.589 403.04C496.525 400.637 492.538 399.05 488.267 398.533C483.995 398.015 479.455 398.568 475.372 400.105" fill="white"/>
<g clip-path="url(#clip10_18_342)">
<path opacity="0.9" fill-rule="evenodd" clip-rule="evenodd" d="M489.415 265.005C492.439 262.548 493.403 259.146 491.555 257.184C489.583 255.091 485.133 255.403 481.62 257.881C478.108 260.359 476.857 264.069 478.828 266.162C480.8 268.256 485.25 267.943 488.763 265.465C488.982 265.31 489.213 265.169 489.415 265.005Z" fill="white"/>
<path d="M491.428 258.429L482.068 228.197" stroke="white" stroke-width="1.5"/>
<path opacity="0.9" fill-rule="evenodd" clip-rule="evenodd" d="M442.082 276.323C445.107 273.866 446.07 270.464 444.222 268.502C442.251 266.409 437.8 266.721 434.288 269.199C430.775 271.677 429.524 275.387 431.496 277.48C433.467 279.573 437.918 279.261 441.43 276.783C441.65 276.628 441.881 276.487 442.082 276.323Z" fill="white"/>
<path d="M444.095 269.746L434.736 239.515" stroke="white" stroke-width="1.5"/>
<path opacity="0.9" d="M434.731 242.3L483.83 230.913L482.618 227.002L433.52 238.388L434.731 242.3Z" fill="white"/>
</g>
<g clip-path="url(#clip11_18_342)">
<path opacity="0.9" fill-rule="evenodd" clip-rule="evenodd" d="M183.336 264.848C180.312 267.305 179.348 270.707 181.197 272.67C183.168 274.763 187.619 274.45 191.131 271.972C194.644 269.494 195.894 265.784 193.923 263.691C191.952 261.598 187.501 261.91 183.988 264.388C183.769 264.543 183.538 264.685 183.336 264.848Z" fill="white"/>
<path d="M181.324 271.425L190.683 301.656" stroke="white" stroke-width="1.5"/>
<path opacity="0.9" fill-rule="evenodd" clip-rule="evenodd" d="M230.669 253.53C227.644 255.988 226.681 259.389 228.529 261.352C230.5 263.445 234.951 263.132 238.464 260.654C241.976 258.176 243.227 254.466 241.255 252.373C239.284 250.28 234.833 250.592 231.321 253.071C231.101 253.225 230.87 253.367 230.669 253.53Z" fill="white"/>
<path d="M228.656 260.107L238.015 290.339" stroke="white" stroke-width="1.5"/>
<path opacity="0.9" d="M238.02 287.554L188.922 298.94L190.133 302.852L239.231 291.466L238.02 287.554Z" fill="white"/>
</g>
<g clip-path="url(#clip12_18_342)">
<path d="M1669.14 808.107C1661.9 804.867 1662.86 796.829 1671.09 790.29C1673.9 788.192 1676.1 787.007 1680.28 786.133C1682.91 785.62 1686.21 786.205 1686.21 786.205C1681.17 769.913 1671.54 739.154 1666.85 724.033C1667.89 723.792 1668.59 723.533 1670.05 723.195C1670.33 724.095 1670.55 724.816 1670.77 725.536C1671.03 726.346 1671.16 726.796 1671.44 727.312C1674.23 732.741 1676.38 734.654 1685.81 739.896C1697.82 746.66 1702.17 751.344 1704.37 758.454C1706.33 765.139 1703.97 780.928 1702.35 780.726C1702.87 775.203 1704.11 769.127 1703.44 764.458C1702.68 758.75 1697.68 751.612 1692.27 748.527C1687.88 745.878 1679.06 744.741 1676.88 745.247C1676.88 745.247 1686.92 778.034 1690.76 790.456C1691.4 792.526 1690.36 796.723 1689.5 798.272C1685.62 805.539 1675.33 810.82 1669.14 808.107Z" fill="white"/>
</g>
<g clip-path="url(#clip13_18_342)">
<path opacity="0.97" fill-rule="evenodd" clip-rule="evenodd" d="M217.177 409.453C213.89 410.264 211.806 412.627 212.443 414.917C213.122 417.358 216.651 418.821 220.32 418.182C223.988 417.542 226.414 415.041 225.735 412.6C225.055 410.158 221.526 408.695 217.858 409.334C217.629 409.374 217.396 409.399 217.177 409.453Z" fill="white"/>
<path opacity="0.97" fill-rule="evenodd" clip-rule="evenodd" d="M186.642 403.377C183.41 404.116 181.372 406.339 182.015 408.516C182.7 410.838 186.186 412.256 189.795 411.682C193.405 411.108 195.778 408.758 195.093 406.436C194.407 404.115 190.922 402.696 187.312 403.27C187.087 403.306 186.858 403.327 186.642 403.377Z" fill="white"/>
<path d="M200.781 374.64L197.941 391.334L195.1 408.028L193.618 407.684L199.495 374.33L200.781 374.64Z" fill="white"/>
<path opacity="0.97" d="M200.759 374.635C200.827 374.968 200.869 375.301 200.885 375.634C200.924 376.477 200.794 377.314 200.986 378.157C201.263 379.371 202.172 380.451 203.034 381.489C204.762 383.567 206.454 385.751 207.187 388.165C208.092 391.141 207.429 394.196 206.003 396.767C205.46 397.746 204.811 398.668 204.174 399.596C204.121 399.674 204.067 399.753 203.999 399.822C203.932 399.89 203.849 399.95 203.75 399.982C203.683 400.004 203.609 400.012 203.534 400.002C203.46 399.991 203.386 399.959 203.331 399.91C203.29 399.874 203.261 399.829 203.243 399.783C203.224 399.736 203.216 399.688 203.213 399.64C203.207 399.518 203.239 399.4 203.274 399.285C203.383 398.933 203.524 398.591 203.675 398.255C204.077 397.364 204.556 396.507 204.934 395.606C205.568 394.096 205.914 392.438 205.644 390.757C205.399 389.234 204.643 387.725 203.497 386.472C202.351 385.218 200.819 384.223 199.146 383.648" fill="white"/>
</g>
<path opacity="0.97" fill-rule="evenodd" clip-rule="evenodd" d="M424.918 594.431C417.298 598.124 413.238 604.809 415.736 609.838C418.4 615.203 427.554 616.717 436.169 613.217C444.785 609.718 449.615 602.525 446.951 597.16C444.287 591.796 435.132 590.282 426.517 593.781C425.979 594 425.426 594.184 424.918 594.431Z" fill="white"/>
<path d="M447.463 515.031L447.553 558.067L447.643 601.103H443.861L444.176 515L447.463 515.031Z" fill="white"/>
<path opacity="0.97" d="M447.406 515.031C447.714 515.816 447.959 516.62 448.138 517.435C448.591 519.503 448.626 521.655 449.454 523.635C450.647 526.487 453.333 528.643 455.889 530.72C461.008 534.88 466.085 539.326 468.905 544.891C472.383 551.753 472.049 559.71 469.636 566.906C468.718 569.645 467.515 572.306 466.346 574.972C466.247 575.197 466.148 575.424 466.011 575.633C465.875 575.843 465.698 576.038 465.468 576.174C465.313 576.266 465.134 576.331 464.947 576.347C464.759 576.363 464.564 576.328 464.408 576.237C464.294 576.171 464.204 576.077 464.138 575.972C464.073 575.868 464.032 575.753 464.006 575.636C463.938 575.335 463.967 575.024 464.006 574.719C464.124 573.783 464.325 572.856 464.554 571.936C465.163 569.495 465.976 567.093 466.523 564.641C467.44 560.531 467.587 556.22 466.213 552.205C464.969 548.571 462.475 545.263 459.132 542.812C455.789 540.362 451.609 538.777 447.26 538.312" fill="white"/>
<path d="M222.387 634.375C221.395 636.864 218.77 638.171 216.501 639.411C211.544 641.734 205.899 643.053 200.228 642.554C198.576 642.309 195.958 641.744 196.051 639.645C196.191 637.438 198.341 636.15 200.007 635.017C204.209 632.51 209.156 631.216 214.135 630.749C216.682 630.664 219.669 630.484 221.814 632.26C222.378 632.826 222.644 633.65 222.387 634.375ZM217.25 626.921C211.213 625.034 204.606 626.366 199.646 629.611C196.309 631.855 193.422 635.732 194.413 640.02C195.108 643.436 198.405 645.757 201.681 646.622C207.28 648.292 213.263 647.027 218.035 644.357C221.599 642.269 224.817 638.628 224.336 634.206C223.993 630.99 221.319 628.329 218.24 627.271C217.913 627.145 217.583 627.027 217.25 626.921Z" fill="white" stroke="white" stroke-width="2.13544"/>
<path d="M238.835 553.978L232.098 593.598L224.827 636.348L221.706 632.371L235.665 553.214L238.835 553.978Z" fill="white"/>
<path d="M243.703 640.172C244.428 641.518 244.562 643.019 244.076 644.343C243.59 645.667 242.523 646.707 241.111 647.233C239.699 647.759 238.056 647.729 236.544 647.149C235.032 646.569 233.775 645.487 233.049 644.141C232.324 642.794 232.188 641.294 232.673 639.969C233.159 638.645 234.224 637.604 235.636 637.077C237.048 636.55 238.691 636.58 240.203 637.159C241.715 637.738 242.973 638.819 243.699 640.165" fill="white"/>
<path d="M101.984 418.296C106.142 418.788 107.463 420.607 108.81 422.169C111.041 425.618 111.152 429.676 107.92 433.932C106.796 435.182 104.69 437.179 100.882 437.316C96.8942 437.428 95.4113 435.96 94.0167 434.834C91.1395 431.963 90.7892 428.42 91.9674 424.772C92.8524 422.891 93.7428 420.693 97.8739 418.928C99.142 418.455 100.762 418.176 101.984 418.296ZM86.2239 422.837C80.2996 427.5 80.0415 432.271 83.9603 435.632C86.7106 437.888 92.6349 439.649 100.899 438.494C107.443 437.644 113.044 434.971 115.969 432.457C121.317 428.139 121.445 423.824 118.501 420.546C116.131 418.107 110.772 416.077 102.472 416.867C96.4375 417.436 90.4686 419.68 87.2703 422.068C86.906 422.323 86.5554 422.579 86.2239 422.837Z" fill="white" stroke="white" stroke-width="2.51368"/>
<g clip-path="url(#clip14_18_342)">
<path d="M38.2129 723.098C40.8125 721.522 44.4815 721.525 47.0653 724.719C50.0659 728.428 49.5083 732.527 48.4933 735.292C47.6973 737.386 46.4655 739.284 44.5622 740.438C41.9626 742.013 38.2936 742.011 35.7098 738.817C32.7092 735.108 33.2668 731.008 34.2818 728.244C35.0778 726.149 36.3096 724.251 38.2129 723.098Z" fill="white"/>
<path d="M67.555 777.324L63.3875 772.173L134.88 728.847L139.047 733.998L67.555 777.324Z" fill="white" stroke="white" stroke-width="0.498132" stroke-linecap="round" stroke-linejoin="round"/>
<path d="M36.7522 738.181L36.1719 738.533C35.9155 738.688 35.8943 739.045 36.1244 739.329L64.5903 774.515C64.8204 774.799 65.2149 774.904 65.4712 774.749L66.0515 774.397C66.3079 774.242 66.3292 773.885 66.099 773.6L37.6332 738.415C37.403 738.131 37.0086 738.026 36.7522 738.181Z" fill="white"/>
<path d="M73.6678 701.611C76.2674 700.036 79.9364 700.039 82.5202 703.232C85.5208 706.941 84.9632 711.041 83.9482 713.805C83.1522 715.9 81.9204 717.798 80.0171 718.951C77.4175 720.527 73.7485 720.524 71.1647 717.33C68.1641 713.621 68.7217 709.522 69.7367 706.757C70.5327 704.663 71.7645 702.765 73.6678 701.611Z" fill="white"/>
<path d="M72.2072 716.695L71.6269 717.046C71.3705 717.202 71.3492 717.558 71.5794 717.843L100.045 753.028C100.275 753.313 100.67 753.417 100.926 753.262L101.506 752.91C101.763 752.755 101.784 752.398 101.554 752.114L73.0881 716.928C72.858 716.644 72.4635 716.539 72.2072 716.695Z" fill="white"/>
<path d="M109.124 680.124C111.724 678.548 115.392 678.551 117.976 681.745C120.977 685.454 120.419 689.553 119.404 692.318C118.608 694.413 117.377 696.311 115.473 697.464C112.874 699.039 109.205 699.037 106.621 695.843C103.62 692.134 104.178 688.035 105.193 685.27C105.989 683.175 107.221 681.277 109.124 680.124Z" fill="white"/>
<path d="M107.663 695.207L107.083 695.559C106.827 695.714 106.805 696.071 107.035 696.355L135.501 731.541C135.731 731.825 136.126 731.93 136.382 731.775L136.963 731.423C137.219 731.268 137.24 730.911 137.01 730.626L108.544 695.441C108.314 695.157 107.92 695.052 107.663 695.207Z" fill="white"/>
</g>
<path d="M334.844 709.433L368.601 814.07L381.555 814.07L356.237 735.423C367.358 740.179 376.256 742.557 382.929 742.557C389.732 742.557 396.013 740.462 401.77 736.272C407.396 732.082 410.209 727.043 410.209 721.154C410.209 716.171 408.181 711.925 404.125 708.414C400.069 704.903 395.162 703.148 389.405 703.148C383.648 703.148 378.742 704.903 374.686 708.414C370.629 711.925 368.601 716.171 368.601 721.154C368.601 724.098 369.386 726.873 370.957 729.477C370.302 729.93 369.714 730.157 369.19 730.157C365.396 730.157 360.424 727.439 354.274 722.003C349.302 717.7 345.377 713.51 342.498 709.433L334.844 709.433Z" fill="white"/>
<path d="M1798 394.003L1814.13 444L1820.32 444L1808.22 406.421C1813.54 408.694 1817.79 409.83 1820.98 409.83C1824.23 409.83 1827.23 408.829 1829.98 406.827C1832.67 404.825 1834.01 402.417 1834.01 399.603C1834.01 397.223 1833.04 395.193 1831.1 393.516C1829.17 391.839 1826.82 391 1824.07 391C1821.32 391 1818.97 391.839 1817.04 393.516C1815.1 395.193 1814.13 397.223 1814.13 399.603C1814.13 401.01 1814.5 402.336 1815.26 403.58C1814.94 403.797 1814.66 403.905 1814.41 403.905C1812.6 403.905 1810.22 402.606 1807.28 400.009C1804.91 397.953 1803.03 395.951 1801.66 394.003L1798 394.003Z" fill="white"/>
<g clip-path="url(#clip15_18_342)">
<path opacity="0.9" fill-rule="evenodd" clip-rule="evenodd" d="M1684.89 472.634C1689 472.123 1692.04 469.815 1691.83 467.29C1691.6 464.597 1687.75 462.643 1683.23 462.929C1678.71 463.215 1675.23 465.634 1675.45 468.327C1675.68 471.02 1679.53 472.974 1684.05 472.687C1684.34 472.669 1684.62 472.668 1684.89 472.634Z" fill="white"/>
<path d="M1690.9 468.246L1703.27 438.836" stroke="white" stroke-width="1.5"/>
<path opacity="0.9" fill-rule="evenodd" clip-rule="evenodd" d="M1638.62 458.408C1642.73 457.897 1645.77 455.589 1645.56 453.064C1645.33 450.37 1641.48 448.417 1636.96 448.703C1632.44 448.989 1628.95 451.407 1629.18 454.101C1629.41 456.794 1633.26 458.747 1637.78 458.461C1638.06 458.443 1638.35 458.442 1638.62 458.408Z" fill="white"/>
<path d="M1644.63 454.02L1657 424.61" stroke="white" stroke-width="1.5"/>
<path opacity="0.9" d="M1655.15 426.888L1702.91 441.935L1704.51 438.129L1656.75 423.083L1655.15 426.888Z" fill="white"/>
</g>
<g clip-path="url(#clip16_18_342)">
<path d="M107.548 501.264C111.026 502.359 113.998 504.877 113.316 508.043C112.523 511.718 108.506 513.124 105.279 513.634C102.812 514.002 100.163 513.985 97.6169 513.182C94.1392 512.086 91.167 509.569 91.8494 506.403C92.6419 502.727 96.659 501.322 99.886 500.812C102.353 500.444 105.002 500.461 107.548 501.264Z" fill="white"/>
<path d="M144.654 553.057L86.411 534.704L87.5117 529.599L145.755 547.951L144.654 553.057Z" fill="white" stroke="white" stroke-width="0.498132" stroke-linecap="round" stroke-linejoin="round"/>
<path d="M142.251 564.203L84.0078 545.85L85.1086 540.745L143.352 559.098L142.251 564.203Z" fill="white" stroke="white" stroke-width="0.498132" stroke-linecap="round" stroke-linejoin="round"/>
<path d="M139.848 575.349L81.6047 556.996L82.7054 551.891L140.948 570.244L139.848 575.349Z" fill="white" stroke="white" stroke-width="0.498132" stroke-linecap="round" stroke-linejoin="round"/>
<path d="M137.444 586.497L79.2013 568.144L80.302 563.039L138.545 581.391L137.444 586.497Z" fill="white" stroke="white" stroke-width="0.498132" stroke-linecap="round" stroke-linejoin="round"/>
<path d="M93.2473 506.841L92.471 506.597C92.128 506.488 91.8007 506.629 91.7399 506.911L79.2407 564.885C79.1799 565.167 79.4087 565.483 79.7517 565.591L80.5279 565.836C80.8709 565.944 81.1983 565.803 81.259 565.521L93.7582 507.547C93.819 507.265 93.5903 506.949 93.2473 506.841Z" fill="white"/>
<path d="M136.283 510.318C139.761 511.414 142.733 513.932 142.051 517.097C141.258 520.773 137.241 522.179 134.014 522.689C131.547 523.056 128.898 523.039 126.352 522.237C122.874 521.141 119.902 518.623 120.584 515.458C121.377 511.782 125.394 510.376 128.621 509.867C131.088 509.499 133.737 509.516 136.283 510.318Z" fill="white"/>
<path d="M121.982 515.896L121.206 515.651C120.863 515.543 120.536 515.684 120.475 515.966L107.976 573.94C107.915 574.222 108.144 574.538 108.487 574.646L109.263 574.891C109.606 574.999 109.933 574.858 109.994 574.576L122.493 516.602C122.554 516.32 122.325 516.004 121.982 515.896Z" fill="white"/>
<path d="M165.017 519.372C168.494 520.468 171.467 522.986 170.784 526.151C169.992 529.827 165.975 531.233 162.748 531.743C160.281 532.11 157.631 532.093 155.085 531.291C151.608 530.195 148.635 527.677 149.318 524.512C150.11 520.836 154.127 519.43 157.354 518.921C159.821 518.553 162.47 518.57 165.017 519.372Z" fill="white"/>
<path d="M150.716 524.95L149.939 524.705C149.596 524.597 149.269 524.738 149.208 525.02L136.709 582.994C136.648 583.276 136.877 583.592 137.22 583.7L137.996 583.945C138.339 584.053 138.667 583.912 138.727 583.63L151.227 525.656C151.287 525.374 151.059 525.058 150.716 524.95Z" fill="white"/>
</g>
<g clip-path="url(#clip17_18_342)">
<path opacity="0.97" fill-rule="evenodd" clip-rule="evenodd" d="M361.041 366.046C357.371 367.768 355.416 370.886 356.618 373.232C357.901 375.734 362.31 376.44 366.459 374.808C370.609 373.176 372.935 369.821 371.652 367.319C370.369 364.817 365.96 364.111 361.811 365.743C361.551 365.845 361.285 365.931 361.041 366.046Z" fill="white"/>
<path d="M371.898 329.014L371.942 349.086L371.985 369.158H370.164L370.315 329L371.898 329.014Z" fill="white"/>
<path opacity="0.97" d="M371.871 329.014C372.019 329.381 372.137 329.756 372.223 330.136C372.442 331.1 372.458 332.104 372.857 333.027C373.432 334.357 374.726 335.363 375.956 336.332C378.422 338.272 380.867 340.345 382.225 342.941C383.9 346.141 383.739 349.853 382.577 353.209C382.135 354.486 381.556 355.727 380.992 356.971C380.945 357.076 380.897 357.181 380.831 357.279C380.766 357.377 380.68 357.468 380.57 357.531C380.495 357.574 380.409 357.605 380.319 357.612C380.228 357.62 380.134 357.603 380.059 357.561C380.004 357.53 379.961 357.486 379.929 357.437C379.898 357.389 379.878 357.335 379.866 357.281C379.833 357.14 379.847 356.995 379.866 356.853C379.922 356.416 380.019 355.984 380.13 355.554C380.423 354.416 380.815 353.296 381.078 352.152C381.519 350.235 381.59 348.225 380.928 346.352C380.329 344.657 379.128 343.115 377.518 341.972C375.908 340.829 373.895 340.089 371.801 339.872" fill="white"/>
</g>
<g clip-path="url(#clip18_18_342)">
<path d="M1552.11 648.425C1554.07 649.042 1555.74 650.46 1555.36 652.243C1554.91 654.313 1552.65 655.105 1550.83 655.392C1549.44 655.599 1547.95 655.589 1546.52 655.138C1544.56 654.52 1542.88 653.102 1543.27 651.32C1543.71 649.249 1545.98 648.457 1547.79 648.17C1549.18 647.963 1550.68 647.973 1552.11 648.425Z" fill="white"/>
<path d="M1573.01 677.595L1540.21 667.259L1540.83 664.383L1573.63 674.72L1573.01 677.595Z" fill="white" stroke="white" stroke-width="0.498132" stroke-linecap="round" stroke-linejoin="round"/>
<path d="M1571.66 683.873L1538.85 673.537L1539.47 670.661L1572.28 680.998L1571.66 683.873Z" fill="white" stroke="white" stroke-width="0.498132" stroke-linecap="round" stroke-linejoin="round"/>
<path d="M1570.3 690.151L1537.5 679.814L1538.12 676.939L1570.92 687.276L1570.3 690.151Z" fill="white" stroke="white" stroke-width="0.498132" stroke-linecap="round" stroke-linejoin="round"/>
<path d="M1568.95 696.429L1536.15 686.093L1536.76 683.217L1569.57 693.554L1568.95 696.429Z" fill="white" stroke="white" stroke-width="0.498132" stroke-linecap="round" stroke-linejoin="round"/>
<path d="M1544.06 651.566L1543.62 651.428C1543.43 651.367 1543.24 651.447 1543.21 651.606L1536.17 684.257C1536.13 684.416 1536.26 684.594 1536.45 684.655L1536.89 684.793C1537.09 684.854 1537.27 684.774 1537.3 684.616L1544.34 651.964C1544.38 651.805 1544.25 651.627 1544.06 651.566Z" fill="white"/>
<path d="M1568.29 653.524C1570.25 654.142 1571.93 655.56 1571.54 657.342C1571.1 659.413 1568.83 660.204 1567.02 660.491C1565.63 660.699 1564.14 660.689 1562.7 660.237C1560.74 659.62 1559.07 658.202 1559.45 656.419C1559.9 654.349 1562.16 653.557 1563.98 653.27C1565.37 653.063 1566.86 653.072 1568.29 653.524Z" fill="white"/>
<path d="M1560.24 656.666L1559.8 656.528C1559.61 656.467 1559.43 656.546 1559.39 656.705L1552.35 689.357C1552.32 689.516 1552.45 689.694 1552.64 689.755L1553.08 689.893C1553.27 689.953 1553.45 689.874 1553.49 689.715L1560.53 657.063C1560.56 656.905 1560.43 656.727 1560.24 656.666Z" fill="white"/>
<path d="M1584.48 658.624C1586.44 659.241 1588.11 660.659 1587.73 662.442C1587.28 664.512 1585.02 665.304 1583.2 665.591C1581.81 665.798 1580.32 665.788 1578.88 665.337C1576.93 664.719 1575.25 663.301 1575.64 661.519C1576.08 659.448 1578.34 658.657 1580.16 658.369C1581.55 658.162 1583.04 658.172 1584.48 658.624Z" fill="white"/>
<path d="M1576.42 661.765L1575.99 661.627C1575.79 661.567 1575.61 661.646 1575.57 661.805L1568.53 694.457C1568.5 694.615 1568.63 694.793 1568.82 694.854L1569.26 694.992C1569.45 695.053 1569.64 694.974 1569.67 694.815L1576.71 662.163C1576.74 662.004 1576.62 661.826 1576.42 661.765Z" fill="white"/>
</g>
</g>
</g>
<defs>
<filter id="filter0_d_18_342" x="-4" y="0" width="1928" height="1088" filterUnits="userSpaceOnUse" color-interpolation-filters="sRGB">
<feFlood flood-opacity="0" result="BackgroundImageFix"/>
<feColorMatrix in="SourceAlpha" type="matrix" values="0 0 0 0 0 0 0 0 0 0 0 0 0 0 0 0 0 0 127 0" result="hardAlpha"/>
<feOffset dy="4"/>
<feGaussianBlur stdDeviation="2"/>
<feComposite in2="hardAlpha" operator="out"/>
<feColorMatrix type="matrix" values="0 0 0 0 0 0 0 0 0 0 0 0 0 0 0 0 0 0 0.25 0"/>
<feBlend mode="normal" in2="BackgroundImageFix" result="effect1_dropShadow_18_342"/>
<feBlend mode="normal" in="SourceGraphic" in2="effect1_dropShadow_18_342" result="shape"/>
</filter>
<filter id="filter1_d_18_342" x="24" y="222.467" width="1822" height="742.137" filterUnits="userSpaceOnUse" color-interpolation-filters="sRGB">
<feFlood flood-opacity="0" result="BackgroundImageFix"/>
<feColorMatrix in="SourceAlpha" type="matrix" values="0 0 0 0 0 0 0 0 0 0 0 0 0 0 0 0 0 0 127 0" result="hardAlpha"/>
<feOffset dy="4"/>
<feGaussianBlur stdDeviation="2"/>
<feComposite in2="hardAlpha" operator="out"/>
<feColorMatrix type="matrix" values="0 0 0 0 0 0 0 0 0 0 0 0 0 0 0 0 0 0 0.25 0"/>
<feBlend mode="normal" in2="BackgroundImageFix" result="effect1_dropShadow_18_342"/>
<feBlend mode="normal" in="SourceGraphic" in2="effect1_dropShadow_18_342" result="shape"/>
</filter>
<filter id="filter2_d_18_342" x="1648.82" y="276.636" width="108.464" height="164.136" filterUnits="userSpaceOnUse" color-interpolation-filters="sRGB">
<feFlood flood-opacity="0" result="BackgroundImageFix"/>
<feColorMatrix in="SourceAlpha" type="matrix" values="0 0 0 0 0 0 0 0 0 0 0 0 0 0 0 0 0 0 127 0" result="hardAlpha"/>
<feOffset dy="4"/>
<feGaussianBlur stdDeviation="2"/>
<feComposite in2="hardAlpha" operator="out"/>
<feColorMatrix type="matrix" values="0 0 0 0 0 0 0 0 0 0 0 0 0 0 0 0 0 0 0.25 0"/>
<feBlend mode="normal" in2="BackgroundImageFix" result="effect1_dropShadow_18_342"/>
<feBlend mode="normal" in="SourceGraphic" in2="effect1_dropShadow_18_342" result="shape"/>
</filter>
<clipPath id="clip0_18_342">
<rect width="58.1389" height="148.161" fill="white" transform="translate(1618.24 541.942)"/>
</clipPath>
<clipPath id="clip1_18_342">
<rect width="110.823" height="140.613" fill="white" transform="matrix(0.809134 -0.587624 0.696074 0.71797 587.279 811.303)"/>
</clipPath>
<clipPath id="clip2_18_342">
<rect width="64.2884" height="40.1672" fill="white" transform="matrix(0.974147 -0.225913 0.295742 0.955268 1384.55 281.309)"/>
</clipPath>
<clipPath id="clip3_18_342">
<rect width="64.8356" height="39.724" fill="white" transform="matrix(-1 0 0 -1 1110.3 301.184)"/>
</clipPath>
<clipPath id="clip4_18_342">
<rect width="96.8981" height="83.8649" fill="white" transform="translate(1469.63 347.189)"/>
</clipPath>
<clipPath id="clip5_18_342">
<rect width="25.8395" height="41.9325" fill="white" transform="translate(1781.89 714.33)"/>
</clipPath>
<clipPath id="clip6_18_342">
<rect width="81.676" height="73.1433" fill="white" transform="matrix(0.953795 -0.300459 0.387651 0.921806 1557 247.007)"/>
</clipPath>
<clipPath id="clip7_18_342">
<rect width="100.064" height="121.258" fill="white" transform="matrix(0.894537 0.446995 -0.554935 0.831894 1469.69 485.148)"/>
</clipPath>
<clipPath id="clip8_18_342">
<rect width="80.0669" height="183.735" fill="white" transform="matrix(0.974147 -0.225913 0.295742 0.955268 432 781.088)"/>
</clipPath>
<clipPath id="clip9_18_342">
<rect width="57.6482" height="149.814" fill="white" transform="matrix(0.974147 -0.225913 0.295742 0.955268 1741.54 269.086)"/>
</clipPath>
<clipPath id="clip10_18_342">
<rect width="64.2884" height="40.1672" fill="white" transform="matrix(0.974147 -0.225913 0.295742 0.955268 420 241.524)"/>
</clipPath>
<clipPath id="clip11_18_342">
<rect width="64.2884" height="40.1672" fill="white" transform="matrix(-0.974147 0.225913 -0.295742 -0.955268 252.751 288.33)"/>
</clipPath>
<clipPath id="clip12_18_342">
<rect width="96.0803" height="84.8006" fill="white" transform="matrix(0.974147 -0.225913 0.295742 0.955268 1620 734.706)"/>
</clipPath>
<clipPath id="clip13_18_342">
<rect width="25.6214" height="42.3585" fill="white" transform="matrix(0.974162 0.225852 -0.169844 0.985471 186.611 369.499)"/>
</clipPath>
<clipPath id="clip14_18_342">
<rect width="102.723" height="61.4624" fill="white" transform="matrix(0.838997 -0.508454 0.642791 0.794526 28 729.287)"/>
</clipPath>
<clipPath id="clip15_18_342">
<rect width="62.12" height="41.8082" fill="white" transform="matrix(0.980772 0.308958 -0.375473 0.892848 1643.59 418.94)"/>
</clipPath>
<clipPath id="clip16_18_342">
<rect width="81.676" height="73.1433" fill="white" transform="matrix(0.953769 0.300539 -0.210758 0.977538 93.8857 496.958)"/>
</clipPath>
<clipPath id="clip17_18_342">
<rect width="28" height="72" fill="white" transform="translate(356 329)"/>
</clipPath>
<clipPath id="clip18_18_342">
<rect width="46.0013" height="41.1955" fill="white" transform="matrix(0.953769 0.300539 -0.210758 0.977538 1544.42 646)"/>
</clipPath>
</defs>
</svg>
