<svg width="103" height="102" viewBox="0 0 103 102" fill="none" xmlns="http://www.w3.org/2000/svg">
<path d="M94.8856 28.3949C93.4492 16.9245 82.3327 8.20205 68.6557 8.20205C65.8245 8.20205 63.0558 8.57676 60.3912 9.347C55.4783 3.51814 47.5885 0 39.0118 0C24.4396 0 12.5945 10.1797 12.5945 22.6701C12.5945 23.2738 12.6361 23.8983 12.6778 24.5229C4.87127 28.5823 0 35.8892 0 43.883C0 56.3943 11.8451 66.5531 26.4172 66.5531C28.7696 66.5531 30.664 64.6588 30.664 62.3272C30.664 59.9957 28.7696 58.1013 26.4172 58.1013C16.5498 58.1013 8.51431 51.7312 8.51431 43.883C8.51431 38.3872 12.6153 33.3078 18.9646 30.9971C21.0672 30.2268 22.1913 27.9786 21.5876 25.8344C21.2754 24.731 21.1088 23.6902 21.1088 22.6701C21.1088 14.8428 29.1443 8.47267 39.0118 8.47267C45.8399 8.47267 52.1683 11.6577 55.1452 16.5914C56.2277 18.3817 58.476 19.1103 60.412 18.3193C62.9934 17.2368 65.7621 16.6955 68.6349 16.6955C78.2942 16.6955 86.3297 22.9407 86.517 30.6015C86.5586 31.8506 87.1415 33.0372 88.1408 33.8074C91.5965 36.5137 93.5117 40.0943 93.5117 43.883C93.5117 51.7104 85.4761 58.1013 75.6087 58.1013C72.382 58.1013 69.1761 57.3935 66.3866 56.0404C64.284 55.0203 61.7235 55.8946 60.7035 57.9972C59.6834 60.0998 60.5577 62.6395 62.6811 63.6595C66.6364 65.5747 71.1122 66.574 75.6087 66.574C90.1809 66.574 102.026 56.3943 102.026 43.9038C102.026 38.1374 99.4446 32.5792 94.8856 28.3949Z" fill="white"/>
<path d="M56.0817 82.2078L51.023 87.204V50.0658C51.023 47.7342 49.1287 45.8398 46.7763 45.8398C44.4239 45.8398 42.5296 47.7342 42.5296 50.0658V87.1831L37.4709 82.187C35.8055 80.5424 33.1201 80.5424 31.4547 82.2078C29.8101 83.8732 29.8101 86.5378 31.4755 88.2032L43.7786 100.361C45.9436 102.526 47.5674 102.567 49.774 100.361L62.0771 88.2032C63.7425 86.5586 63.7425 83.8732 62.0979 82.2078C60.4325 80.5632 57.7471 80.5424 56.0817 82.2078Z" fill="white"/>
</svg>
