<svg width="108" height="33" viewBox="0 0 108 33" fill="none" xmlns="http://www.w3.org/2000/svg">
<path d="M8.28 4.5759C7.872 5.3919 7.668 6.4959 7.668 7.8879L7.704 9.3279V10.7319C7.704 12.0039 7.572 13.0719 7.308 13.9359C7.068 14.7999 6.516 15.7239 5.652 16.7079C6.156 17.1639 6.492 17.9439 6.66 19.0479C6.828 20.1519 6.924 21.5199 6.948 23.1519C6.972 24.9519 7.056 26.3439 7.2 27.3279C7.368 28.3359 7.764 29.0799 8.388 29.5599C8.652 29.7759 8.952 29.9199 9.288 29.9919C9.624 30.0639 10.02 30.1119 10.476 30.1359C11.004 30.1839 11.376 30.2559 11.592 30.3519C11.832 30.4719 11.952 30.7119 11.952 31.0719C11.952 31.6239 11.688 32.0439 11.16 32.3319C10.656 32.6199 10.02 32.7639 9.252 32.7639C7.98 32.7639 6.828 32.2959 5.796 31.3599C4.764 30.4239 4.128 29.3199 3.888 28.0479C3.792 27.5919 3.744 27.0399 3.744 26.3919C3.744 26.0079 3.768 25.4079 3.816 24.5919L3.852 22.7919C3.852 21.1119 3.708 19.9719 3.42 19.3719C3.276 19.0359 2.88 18.6759 2.232 18.2919C1.776 18.0039 1.452 17.7639 1.26 17.5719C1.068 17.3559 0.972 17.0679 0.972 16.7079C0.972 16.4199 1.032 16.1439 1.152 15.8799C1.296 15.6639 1.476 15.4839 1.692 15.3399C1.932 15.1959 2.172 15.0639 2.412 14.9439C2.892 14.6799 3.216 14.4639 3.384 14.2959C3.816 13.9119 4.08 13.3959 4.176 12.7479C4.296 12.0999 4.356 11.1639 4.356 9.9399V8.8239C4.356 6.8799 4.524 5.2839 4.86 4.0359C5.196 2.7879 5.928 1.9359 7.056 1.4799C7.464 1.3119 8.004 1.2279 8.676 1.2279C9.444 1.2279 10.128 1.3359 10.728 1.5519C11.328 1.7439 11.628 2.0439 11.628 2.4519C11.628 3.1959 11.472 3.6639 11.16 3.8559C10.872 4.0239 10.548 4.0959 10.188 4.0719C9.828 4.0479 9.576 4.0359 9.432 4.0359C8.88 4.0359 8.496 4.2159 8.28 4.5759ZM31.2365 18.4359C31.2365 19.5639 30.9725 20.5359 30.4445 21.3519C29.9405 22.1439 29.1005 22.8759 27.9245 23.5479C27.1325 24.0279 26.2085 24.3879 25.1525 24.6279C24.0965 24.8679 23.0285 24.9879 21.9485 24.9879C20.8445 24.9879 19.4765 24.6279 17.8445 23.9079C16.6685 23.3319 15.7325 22.6479 15.0365 21.8559C14.3645 21.0639 14.0285 20.1999 14.0285 19.2639C14.0285 18.6159 14.1725 18.1479 14.4605 17.8599C14.7485 17.5479 15.2165 17.3919 15.8645 17.3919C16.2005 17.3919 16.5485 17.5359 16.9085 17.8239C17.2685 18.0879 17.4845 18.3519 17.5565 18.6159C17.8925 19.5999 18.4805 20.3559 19.3205 20.8839C20.1605 21.3879 21.2045 21.6399 22.4525 21.6399C23.8925 21.6399 25.0925 21.3759 26.0525 20.8479C27.0365 20.3199 27.5285 19.6119 27.5285 18.7239C27.5285 17.8599 27.0005 17.0919 25.9445 16.4199C24.8885 15.7479 23.8085 15.2799 22.7045 15.0159C21.1205 14.5839 19.7165 14.0679 18.4925 13.4679C17.2205 12.8439 16.2725 12.0759 15.6485 11.1639C15.0245 10.2519 14.7125 9.2919 14.7125 8.2839C14.7125 7.3479 15.0365 6.3999 15.6845 5.4399C16.3325 4.4559 17.1005 3.7479 17.9885 3.3159C18.4685 3.0759 19.2845 2.8239 20.4365 2.5599C21.6125 2.2719 22.4645 2.1279 22.9925 2.1279C23.6885 2.1279 24.4565 2.2119 25.2965 2.3799C26.1365 2.5479 26.8205 2.7879 27.3485 3.0999C28.4045 3.6999 29.1845 4.2399 29.6885 4.7199C30.1925 5.1999 30.4445 5.7999 30.4445 6.5199C30.4445 6.9519 30.2765 7.3359 29.9405 7.6719C29.6285 8.0079 29.0765 8.1759 28.2845 8.1759C28.0925 8.1759 27.9005 8.0919 27.7085 7.9239C27.5165 7.7559 27.2765 7.5039 26.9885 7.1679C26.6045 6.6639 26.2325 6.3279 25.8725 6.1599C25.5125 6.0399 24.9845 5.9079 24.2885 5.7639C23.6165 5.6199 23.0165 5.5479 22.4885 5.5479C21.9125 5.5479 21.3125 5.6679 20.6885 5.9079C20.0645 6.1479 19.5365 6.4959 19.1045 6.9519C18.6965 7.3839 18.4925 7.8879 18.4925 8.4639C18.4925 8.9439 18.7085 9.3639 19.1405 9.7239C19.5965 10.0599 20.1365 10.3359 20.7605 10.5519C21.4805 10.8399 22.2605 11.0919 23.1005 11.3079C24.2045 11.6439 25.1045 11.9559 25.8005 12.2439C26.5205 12.5079 27.2165 12.8439 27.8885 13.2519C29.0645 13.9479 29.9165 14.6679 30.4445 15.4119C30.9725 16.1319 31.2365 17.1399 31.2365 18.4359ZM35.4313 12.4239C35.2153 12.4239 35.0113 12.4479 34.8193 12.4959C34.6273 12.5199 34.4353 12.5319 34.2433 12.5319C33.9793 12.5319 33.7273 12.4119 33.4873 12.1719C33.2713 11.9319 33.1633 11.7159 33.1633 11.5239C33.1633 10.8999 33.4753 10.4199 34.0993 10.0839C34.7233 9.7239 35.3593 9.5439 36.0073 9.5439C36.5593 9.5439 37.1233 9.7359 37.6993 10.1199C38.2993 10.4799 38.7433 10.9479 39.0313 11.5239C39.6553 10.7799 40.4233 10.2399 41.3353 9.9039C42.2473 9.5679 43.1953 9.3999 44.1793 9.3999C45.2833 9.3999 46.3033 9.7479 47.2393 10.4439C48.1993 11.1399 48.9553 12.0279 49.5073 13.1079C50.0593 14.1639 50.3353 15.2199 50.3353 16.2759C50.3353 17.3079 50.2273 18.2319 50.0113 19.0479C49.7953 19.8399 49.4113 20.6439 48.8593 21.4599C48.2353 22.3239 47.3953 23.0319 46.3393 23.5839C45.3073 24.1359 44.0713 24.4119 42.6313 24.4119C42.2473 24.4119 41.7793 24.3159 41.2273 24.1239C40.6753 23.9079 40.2193 23.6799 39.8593 23.4399C39.6913 25.0719 39.6073 26.4879 39.6073 27.6879C39.6073 28.4079 39.6433 29.0919 39.7153 29.7399C39.7633 30.5079 39.7873 31.0599 39.7873 31.3959C39.7873 31.9239 39.6073 32.3079 39.2473 32.5479C38.8873 32.8119 38.4913 32.9439 38.0593 32.9439C37.1953 32.9439 36.6193 32.7039 36.3313 32.2239C36.0673 31.7679 35.9353 31.1079 35.9353 30.2439C36.0313 28.1799 36.1513 26.2719 36.2953 24.5199C36.4393 22.3599 36.5113 19.0239 36.5113 14.5119C36.5113 14.0799 36.4273 13.6239 36.2593 13.1439C36.0913 12.6639 35.8153 12.4239 35.4313 12.4239ZM40.0033 19.8759C40.1233 20.3319 40.4593 20.7159 41.0113 21.0279C41.5873 21.3159 42.1033 21.4599 42.5593 21.4599C43.9273 21.4599 44.9473 21.0879 45.6193 20.3439C46.1233 19.8159 46.4473 19.2999 46.5913 18.7959C46.7593 18.2919 46.8433 17.4879 46.8433 16.3839C46.8433 15.5199 46.6753 14.7999 46.3393 14.2239C46.0033 13.6239 45.5953 13.1919 45.1153 12.9279C44.6353 12.6399 44.1793 12.4959 43.7473 12.4959C42.7633 12.4959 41.9593 12.7959 41.3353 13.3959C40.7353 13.9719 40.3513 14.7639 40.1833 15.7719C40.0633 16.5639 40.0033 17.9319 40.0033 19.8759ZM53.658 12.4239C53.322 12.3759 53.046 12.2439 52.83 12.0279C52.638 11.7879 52.542 11.4999 52.542 11.1639C52.542 10.7319 52.71 10.3719 53.046 10.0839C53.118 10.0119 53.238 9.9519 53.406 9.9039C53.574 9.8319 53.706 9.7719 53.802 9.7239C54.33 9.5559 54.666 9.4239 54.81 9.3279C55.362 8.9919 55.734 8.4399 55.926 7.6719C56.118 6.7599 56.238 6.1359 56.286 5.7999C56.334 5.2719 56.502 4.8759 56.79 4.6119C57.102 4.3239 57.486 4.1799 57.942 4.1799C58.542 4.1799 58.962 4.3359 59.202 4.6479C59.442 4.9599 59.562 5.5359 59.562 6.3759C59.562 7.4799 59.298 8.5239 58.77 9.5079C59.106 9.5079 59.658 9.4839 60.426 9.4359C61.578 9.3879 62.382 9.3639 62.838 9.3639C63.246 9.3639 63.594 9.4719 63.882 9.6879C64.194 9.8799 64.35 10.1679 64.35 10.5519C64.35 11.4639 63.93 12.0039 63.09 12.1719C62.322 12.3879 60.93 12.5199 58.914 12.5679C58.746 14.9199 58.662 16.7799 58.662 18.1479C58.662 18.9879 58.698 19.5879 58.77 19.9479C58.914 20.6919 59.154 21.2439 59.49 21.6039C59.85 21.9399 60.378 22.1079 61.074 22.1079C61.41 22.1079 61.914 22.0239 62.586 21.8559C62.994 21.7359 63.318 21.6759 63.558 21.6759C63.87 21.6759 64.11 21.7839 64.278 21.9999C64.446 22.2159 64.53 22.5039 64.53 22.8639C64.53 23.5119 64.11 24.0519 63.27 24.4839C62.43 24.8919 61.434 25.0959 60.282 25.0959C59.562 25.0959 58.854 24.9279 58.158 24.5919C57.462 24.2319 56.874 23.7999 56.394 23.2959C56.298 23.2479 56.154 22.9839 55.962 22.5039C55.794 22.0239 55.626 21.4959 55.458 20.9199C55.386 20.6319 55.35 19.9359 55.35 18.8319C55.35 17.7759 55.422 15.9519 55.566 13.3599L55.602 12.5679C55.434 12.5679 55.122 12.5559 54.666 12.5319C54.21 12.4839 53.874 12.4479 53.658 12.4239ZM77.0228 4.9719C76.7828 4.9719 76.5788 4.9239 76.4108 4.8279C76.2668 4.7079 76.0868 4.5279 75.8708 4.2879C75.6548 4.0479 75.4388 3.8679 75.2228 3.7479C75.0308 3.6039 74.7788 3.5319 74.4668 3.5319C74.2268 3.5319 73.9748 3.7119 73.7108 4.0719C73.4468 4.4079 73.2668 4.9479 73.1708 5.6919C73.0028 7.2519 72.9188 8.5119 72.9188 9.4719C73.4708 9.5439 74.3108 9.5799 75.4388 9.5799H76.6988C77.1308 9.5799 77.4668 9.6639 77.7068 9.8319C77.9468 9.9999 78.0668 10.2759 78.0668 10.6599C78.0668 11.2119 77.8988 11.6679 77.5628 12.0279C77.2268 12.3879 76.8308 12.5679 76.3748 12.5679C74.8628 12.5679 73.6988 12.5319 72.8828 12.4599C72.8108 13.7799 72.7748 15.2079 72.7748 16.7439C72.7748 18.9039 72.8468 21.0639 72.9908 23.2239C73.0148 23.8719 72.8828 24.3519 72.5948 24.6639C72.3068 24.9519 71.8388 25.0959 71.1908 25.0959C70.8068 25.0959 70.5188 25.0119 70.3268 24.8439C70.1348 24.6759 69.9908 24.4959 69.8948 24.3039C69.8228 24.0879 69.7268 23.7159 69.6068 23.1879C69.4148 22.2039 69.3188 20.3559 69.3188 17.6439V14.6559C69.3188 13.9839 69.3548 13.2039 69.4268 12.3159C69.2348 12.3159 68.8748 12.3159 68.3468 12.3159C67.8428 12.2919 67.3868 12.2319 66.9788 12.1359C66.7628 12.0639 66.5468 11.8839 66.3308 11.5959C66.1148 11.3079 66.0068 10.9599 66.0068 10.5519C66.0068 10.3119 66.0908 10.0839 66.2588 9.8679C66.4268 9.6519 66.6308 9.4959 66.8708 9.3999C67.0148 9.3279 67.1828 9.2919 67.3748 9.2919C67.5428 9.2919 67.7108 9.3159 67.8788 9.3639C68.0708 9.3879 68.2508 9.3999 68.4188 9.3999L69.4988 9.4359C69.4988 6.1719 69.8708 3.8799 70.6148 2.5599C71.3348 1.3119 72.5228 0.687903 74.1788 0.687903C74.7068 0.687903 75.3308 0.795903 76.0508 1.0119C76.7948 1.2039 77.4308 1.5039 77.9588 1.9119C78.5108 2.2959 78.7868 2.7639 78.7868 3.3159C78.7868 3.7239 78.6068 4.1079 78.2468 4.4679C77.9108 4.8039 77.5028 4.9719 77.0228 4.9719ZM84.6875 32.2959C83.7755 32.2959 83.0075 32.1399 82.3835 31.8279C81.7835 31.5399 81.3275 31.1799 81.0155 30.7479C80.7275 30.3399 80.5835 29.9799 80.5835 29.6679C80.5835 29.2599 80.7275 28.9359 81.0155 28.6959C81.3035 28.4799 81.6515 28.3719 82.0595 28.3719C82.2995 28.3719 82.5275 28.4439 82.7435 28.5879C82.9595 28.7319 83.0795 28.8159 83.1035 28.8399C83.2715 28.9599 83.4395 29.0559 83.6075 29.1279C83.7755 29.2239 83.9555 29.2719 84.1475 29.2719C84.6755 29.2719 85.1075 28.9239 85.4435 28.2279C85.7795 27.5319 86.1155 26.4039 86.4515 24.8439C85.3715 23.2599 84.4715 21.6759 83.7515 20.0919L82.9235 18.1839C82.8035 17.8959 82.4675 17.1519 81.9155 15.9519C81.3875 14.7279 80.8595 13.6479 80.3315 12.7119C79.9955 12.0399 79.8275 11.5839 79.8275 11.3439C79.8275 10.7439 80.0315 10.2999 80.4395 10.0119C80.8715 9.7239 81.3635 9.5799 81.9155 9.5799C82.2995 9.5799 82.5875 9.6639 82.7795 9.8319C82.9955 9.9759 83.2355 10.2519 83.4995 10.6599C84.1955 11.8119 84.9515 13.5399 85.7675 15.8439C86.2475 17.1639 86.6315 18.1719 86.9195 18.8679C87.2075 19.5399 87.5555 20.2239 87.9635 20.9199C88.3715 19.9839 88.8875 18.3879 89.5115 16.1319C89.8955 14.8359 90.2075 13.8039 90.4475 13.0359C90.7115 12.2439 90.9995 11.5239 91.3115 10.8759C91.5275 10.4439 91.7915 10.0959 92.1035 9.8319C92.4395 9.5679 92.8115 9.4359 93.2195 9.4359C93.6275 9.4359 94.0595 9.5919 94.5155 9.9039C94.9955 10.1919 95.2355 10.5399 95.2355 10.9479C95.2355 11.1879 95.1515 11.4759 94.9835 11.8119C94.0475 13.9719 93.2195 16.0119 92.4995 17.9319C91.8035 19.8279 91.1315 21.9159 90.4835 24.1959C90.0995 25.4679 89.6915 26.6799 89.2595 27.8319C88.8515 28.9839 88.5635 29.6919 88.3955 29.9559C87.9155 30.6279 87.3755 31.1799 86.7755 31.6119C86.1755 32.0679 85.4795 32.2959 84.6875 32.2959ZM99.7625 4.5759C99.6665 4.3599 99.5105 4.2279 99.2945 4.1799C99.1025 4.1079 98.8505 4.0719 98.5385 4.0719C98.4425 4.0719 98.1785 4.0839 97.7465 4.1079C97.3145 4.1079 96.9905 3.9759 96.7745 3.7119C96.5585 3.4479 96.4505 3.0279 96.4505 2.4519C96.4505 2.0439 96.7505 1.7439 97.3505 1.5519C97.9505 1.3359 98.6345 1.2279 99.4025 1.2279C100.05 1.2279 100.59 1.3119 101.022 1.4799C102.15 1.9359 102.87 2.7879 103.182 4.0359C103.518 5.2599 103.686 6.8559 103.686 8.8239V9.9399C103.686 11.1399 103.746 12.0759 103.866 12.7479C103.986 13.3959 104.262 13.9119 104.694 14.2959C104.862 14.4639 105.186 14.6799 105.666 14.9439C105.906 15.0639 106.134 15.1959 106.35 15.3399C106.566 15.4839 106.746 15.6639 106.89 15.8799C107.034 16.1919 107.106 16.4799 107.106 16.7439C107.106 17.0799 106.998 17.3559 106.782 17.5719C106.566 17.7879 106.254 18.0279 105.846 18.2919C105.222 18.6519 104.814 19.0119 104.622 19.3719C104.358 19.9959 104.226 21.1359 104.226 22.7919L104.262 24.5919C104.286 24.9999 104.298 25.5999 104.298 26.3919C104.298 27.1599 104.262 27.7119 104.19 28.0479C103.95 29.3199 103.314 30.4239 102.282 31.3599C101.25 32.2959 100.086 32.7639 98.7905 32.7639C98.0225 32.7639 97.3865 32.6199 96.8825 32.3319C96.3785 32.0439 96.1265 31.6239 96.1265 31.0719C96.1265 30.7119 96.2345 30.4719 96.4505 30.3519C96.6905 30.2559 97.0745 30.1839 97.6025 30.1359C98.0585 30.1119 98.4545 30.0639 98.7905 29.9919C99.1265 29.9199 99.4265 29.7759 99.6905 29.5599C100.29 29.0799 100.662 28.3479 100.806 27.3639C100.974 26.4039 101.082 24.9999 101.13 23.1519C101.154 21.5199 101.238 20.1519 101.382 19.0479C101.55 17.9439 101.886 17.1639 102.39 16.7079C101.526 15.7239 100.974 14.7999 100.734 13.9359C100.494 13.0479 100.374 11.9799 100.374 10.7319V9.3279V7.9239C100.374 6.4839 100.17 5.3679 99.7625 4.5759Z" fill="white"/>
</svg>
